<svg xmlns="http://www.w3.org/2000/svg" width="24" height="24" viewBox="0 0 24 24" fill="none">
  <path fill-rule="evenodd" clip-rule="evenodd" d="M6.75 22.5H17.25C18.6419 22.4985 19.9764 21.9448 20.9606 20.9606C21.9448 19.9764 22.4985 18.6419 22.5 17.25V12C22.4991 11.2046 22.1828 10.4421 21.6203 9.87967C21.0579 9.31725 20.2954 9.00089 19.5 9H13.5V4.5C13.4993 3.90346 13.2621 3.33155 12.8403 2.90973C12.4185 2.48792 11.8465 2.25066 11.25 2.25H11.1504C10.7897 2.2515 10.4416 2.38229 10.1691 2.61862C9.8967 2.85495 9.71805 3.18115 9.66562 3.53797L9.03165 7.97535L6.75 11.398V22.5ZM1.5 12H5.25V22.5H1.5V12Z" fill="#50C85A"/>
</svg>