<svg xmlns="http://www.w3.org/2000/svg" width="24" height="24" viewBox="0 0 24 24" fill="none">
  <path fill-rule="evenodd" clip-rule="evenodd" d="M4.5 3H19.5C19.8978 3 20.2794 3.15804 20.5607 3.43934C20.842 3.72064 21 4.10218 21 4.5V19.5C21 19.8978 20.842 20.2794 20.5607 20.5607C20.2794 20.842 19.8978 21 19.5 21H4.5C4.10218 21 3.72064 20.842 3.43934 20.5607C3.15804 20.2794 3 19.8978 3 19.5V4.5C3 4.10218 3.15804 3.72064 3.43934 3.43934C3.72064 3.15804 4.10218 3 4.5 3ZM4.5 15V19.5H19.5V18L15.75 14.25L14.5575 15.4425C14.2765 15.7219 13.8963 15.8787 13.5 15.8787C13.1037 15.8787 12.7235 15.7219 12.4425 15.4425L8.25 11.25L4.5 15ZM16.8075 13.185L19.5 15.8775V4.5H4.5V12.8775L7.1925 10.185C7.47354 9.90562 7.85372 9.74881 8.25 9.74881C8.64628 9.74881 9.02646 9.90562 9.3075 10.185L13.5 14.3775L14.6925 13.185C14.9735 12.9056 15.3537 12.7488 15.75 12.7488C16.1463 12.7488 16.5265 12.9056 16.8075 13.185ZM15.5 10.1208C15.13 10.368 14.695 10.5 14.25 10.5C13.6533 10.5 13.081 10.2629 12.659 9.84099C12.2371 9.41904 12 8.84674 12 8.25C12 7.80499 12.132 7.36998 12.3792 6.99997C12.6264 6.62996 12.9778 6.34157 13.389 6.17127C13.8001 6.00097 14.2525 5.95642 14.689 6.04323C15.1254 6.13005 15.5263 6.34434 15.841 6.65901C16.1557 6.97368 16.37 7.37459 16.4568 7.81105C16.5436 8.24751 16.499 8.69991 16.3287 9.11104C16.1584 9.52217 15.87 9.87357 15.5 10.1208ZM14.6667 7.6264C14.5433 7.54399 14.3983 7.5 14.25 7.5C14.0511 7.5 13.8603 7.57902 13.7197 7.71967C13.579 7.86032 13.5 8.05109 13.5 8.25C13.5 8.39834 13.544 8.54334 13.6264 8.66668C13.7088 8.79002 13.8259 8.88615 13.963 8.94291C14.1 8.99968 14.2508 9.01453 14.3963 8.98559C14.5418 8.95665 14.6754 8.88522 14.7803 8.78033C14.8852 8.67544 14.9567 8.54181 14.9856 8.39632C15.0145 8.25083 14.9997 8.10003 14.9429 7.96299C14.8861 7.82594 14.79 7.70881 14.6667 7.6264Z" fill="#DE350B"/>
</svg>