<svg xmlns="http://www.w3.org/2000/svg" width="16" height="16" viewBox="0 0 16 16" fill="none">
  <path fill-rule="evenodd" clip-rule="evenodd" d="M4.58789 14.0801C4.67773 14.1895 4.80664 14.2441 4.97461 14.2441C5.0918 14.2441 5.19727 14.2129 5.29102 14.1504C5.38867 14.0918 5.50781 13.998 5.64844 13.8691L7.76367 11.9355H12.3164C12.8984 11.9355 13.3887 11.832 13.7871 11.625C14.1855 11.418 14.4863 11.1152 14.6895 10.7168C14.8965 10.3184 15 9.83203 15 9.25781V4.76953C15 4.19531 14.8965 3.70898 14.6895 3.31055C14.4863 2.91211 14.1855 2.60938 13.7871 2.40234C13.3887 2.19141 12.8984 2.08594 12.3164 2.08594H3.68359C3.10156 2.08594 2.61133 2.19141 2.21289 2.40234C1.81445 2.60938 1.51172 2.91211 1.30469 3.31055C1.10156 3.70898 1 4.19531 1 4.76953V9.25781C1 9.83203 1.10156 10.3184 1.30469 10.7168C1.51172 11.1152 1.81445 11.418 2.21289 11.625C2.61133 11.832 3.10156 11.9355 3.68359 11.9355H4.45312V13.6406C4.45312 13.8242 4.49805 13.9707 4.58789 14.0801ZM11.3335 5.33334H4.66683V6.16668H11.3335V5.33334ZM8.83341 7.83333H4.66675V8.66667H8.83341V7.83333Z" fill="#50C85A"/>
</svg>