<svg xmlns="http://www.w3.org/2000/svg" width="16" height="16" viewBox="0 0 16 16" fill="none">
  <path fill-rule="evenodd" clip-rule="evenodd" d="M4.5 15H11.5C12.4279 14.999 13.3176 14.6299 13.9737 13.9737C14.6299 13.3176 14.999 12.4279 15 11.5V8C14.9994 7.46975 14.7885 6.96139 14.4136 6.58644C14.0386 6.2115 13.5303 6.0006 13 6H9V3C8.99956 2.60231 8.84139 2.22103 8.56018 1.93982C8.27897 1.65861 7.89769 1.50044 7.5 1.5H7.4336C7.19316 1.501 6.96106 1.58819 6.77943 1.74575C6.5978 1.9033 6.4787 2.12076 6.44375 2.35865L6.0211 5.3169L4.5 7.59865V15ZM1 8H3.5V15H1V8Z" fill="#50C85A"/>
</svg>