<svg xmlns="http://www.w3.org/2000/svg" width="12" height="12" viewBox="0 0 12 12" fill="none">
      <g clip-path="url(#clip0_1066_2646)">
        <path
          d="M4.53756 0.750021C3.81839 0.747574 3.11431 0.95619 2.51256 1.35002L4.91256 3.75002C4.99249 3.81822 5.05796 3.90172 5.10512 3.99561C5.15229 4.0895 5.18018 4.19188 5.18717 4.29671C5.19416 4.40155 5.1801 4.50673 5.14582 4.60604C5.11154 4.70536 5.05773 4.79682 4.98756 4.87502C4.90935 4.94519 4.8179 4.999 4.71858 5.03328C4.61926 5.06757 4.51409 5.08163 4.40925 5.07464C4.30441 5.06765 4.20204 5.03975 4.10815 4.99259C4.01426 4.94543 3.93075 4.87995 3.86256 4.80002L1.38756 2.40002C0.959642 3.0297 0.736966 3.77632 0.750058 4.53752C0.754008 5.54081 1.15431 6.50189 1.86375 7.21132C2.57319 7.92076 3.53427 8.32107 4.53756 8.32502C4.8659 8.32682 5.19326 8.28905 5.51256 8.21252L8.02506 10.725C8.37813 11.0781 8.85699 11.2764 9.35631 11.2764C9.85562 11.2764 10.3345 11.0781 10.6876 10.725C11.0406 10.372 11.239 9.89309 11.239 9.39377C11.239 8.89446 11.0406 8.41559 10.6876 8.06252L8.17506 5.55002C8.25158 5.23072 8.28935 4.90336 8.28756 4.57502C8.29753 4.07629 8.20791 3.58058 8.02392 3.11692C7.83994 2.65325 7.5653 2.23096 7.21608 1.87475C6.86686 1.51855 6.45009 1.2356 5.99016 1.04247C5.53023 0.849346 5.03639 0.749922 4.53756 0.750021Z"
          fill="#50C85A"
        />
      </g>
      <defs>
        <clipPath id="clip0_1066_2646">
          <rect width="12" height="12" fill="white" />
        </clipPath>
      </defs>
</svg>