 <svg xmlns="http://www.w3.org/2000/svg" width="24" height="24" viewBox="0 0 24 24" fill="none">
            <path
              d="M19.5 9H15V4.5C14.9993 3.90346 14.7621 3.33155 14.3403 2.90973C13.9185 2.48792 13.3465 2.25066 12.75 2.25H11.1504C10.7897 2.25145 10.4415 2.38221 10.169 2.61855C9.89652 2.85488 9.71783 3.18111 9.6654 3.53797L9.03142 7.97535L6.3486 12H1.5V22.5H17.25C18.6419 22.4985 19.9764 21.9448 20.9606 20.9606C21.9448 19.9764 22.4985 18.6419 22.5 17.25V12C22.4991 11.2046 22.1828 10.4421 21.6203 9.87967C21.0579 9.31725 20.2954 9.00089 19.5 9ZM6 21H3V13.5H6V21ZM21 17.25C20.9989 18.2442 20.6034 19.1974 19.9004 19.9004C19.1974 20.6034 18.2442 20.9989 17.25 21H7.5V12.977L10.4683 8.52465L11.1504 3.75H12.75C12.9489 3.75016 13.1395 3.82923 13.2802 3.96985C13.4208 4.11046 13.4998 4.30114 13.5 4.5V10.5H19.5C19.8977 10.5005 20.2789 10.6587 20.5601 10.9399C20.8413 11.2211 20.9995 11.6023 21 12V17.25Z"
              fill="#111111"
            />
          </svg>