<svg xmlns="http://www.w3.org/2000/svg" width="22" height="14" viewBox="0 0 22 14" fill="none">
  <path fill-rule="evenodd" clip-rule="evenodd" d="M14.7807 0.95166H13.942L10.4948 13.0488H13.6935L15.9607 5.09258L18.228 13.0488H21.4267L17.9795 0.95166H17.1407H14.7807Z" fill="#B7B7B7"/>
  <path d="M5.59128 0.964844C6.54085 0.964844 7.33763 1.136 7.9816 1.4783C8.62556 1.8147 9.11127 2.29275 9.43871 2.91244C9.76615 3.52622 9.92987 4.24624 9.92987 5.07249C9.92987 5.72759 9.81527 6.29121 9.58606 6.76336C9.35685 7.2296 9.08671 7.60731 8.77564 7.8965C8.47003 8.17979 8.19989 8.3775 7.96522 8.48963L10.1673 13.0488H6.60634L4.78905 8.94112H3.74123V13.0488H0.573242V0.964844H5.59128ZM3.74123 6.57745H5.09193C5.50669 6.57745 5.86141 6.45351 6.15611 6.20564C6.45081 5.95776 6.59816 5.5771 6.59816 5.06364C6.59816 4.54428 6.44808 4.15476 6.14793 3.89508C5.84777 3.6295 5.4985 3.49671 5.10011 3.49671H3.74123V6.57745Z" fill="#B7B7B7"/>
</svg>