<svg width="25" height="24" viewBox="0 0 25 24" fill="none" xmlns="http://www.w3.org/2000/svg">
<g id="icon" clip-path="url(#clip0_1547_16985)">
<path id="Vector" fill-rule="evenodd" clip-rule="evenodd" d="M20.7255 4.09013C21.2725 4.31726 21.7693 4.65012 22.1873 5.06964C23.032 5.91141 23.5081 7.05403 23.5109 8.24654C23.5137 9.43904 23.0431 10.5839 22.2024 11.4296L16.2023 17.4296C15.7822 17.8503 15.2829 18.1836 14.7332 18.4101C14.1835 18.6367 13.5944 18.7521 12.9998 18.7496C11.8074 18.7566 10.661 18.2899 9.81235 17.4521C9.39283 17.0341 9.05996 16.5373 8.83284 15.9903C8.60571 15.4433 8.4888 14.8569 8.4888 14.2646C8.4888 13.6724 8.60571 13.0859 8.83284 12.539C9.05996 11.992 9.39283 11.4952 9.81235 11.0771L10.8773 10.0121L11.9348 11.0771L10.8773 12.1421C10.3144 12.7061 9.99858 13.4705 9.99928 14.2673C9.99998 15.0641 10.3172 15.828 10.8811 16.3909C11.445 16.9538 12.2095 17.2697 13.0063 17.269C13.803 17.2683 14.5669 16.9511 15.1298 16.3871L21.1298 10.3871C21.4091 10.1079 21.6306 9.77643 21.7817 9.41161C21.9328 9.04679 22.0106 8.65577 22.0106 8.26089C22.0106 7.86601 21.9328 7.475 21.7817 7.11017C21.6306 6.74535 21.4091 6.41387 21.1298 6.13464C20.8506 5.85542 20.5191 5.63393 20.1543 5.48281C19.7895 5.3317 19.3985 5.25392 19.0036 5.25392C18.6087 5.25392 18.2177 5.3317 17.8529 5.48281C17.4881 5.63393 17.1566 5.85542 16.8773 6.13464L15.8123 5.06964C16.2304 4.65012 16.7272 4.31726 17.2742 4.09013C17.8211 3.86301 18.4076 3.74609 18.9998 3.74609C19.5921 3.74609 20.1785 3.86301 20.7255 4.09013ZM2.73843 17.6396C2.89007 18.0045 3.1123 18.3359 3.39235 18.6146C3.67111 18.8947 4.00245 19.1169 4.36733 19.2685C4.73222 19.4202 5.12347 19.4982 5.51861 19.4982C5.91375 19.4982 6.30499 19.4202 6.66988 19.2685C7.03476 19.1169 7.3661 18.8947 7.64485 18.6146L8.70986 19.6796C7.85614 20.5262 6.70218 21.0008 5.49986 20.9996C4.30803 21.0145 3.15897 20.556 2.30486 19.7246C1.88421 19.3064 1.55039 18.8092 1.3226 18.2615C1.09481 17.7138 0.977539 17.1265 0.977539 16.5334C0.977539 15.9402 1.09481 15.3529 1.3226 14.8052C1.55039 14.2576 1.88421 13.7603 2.30486 13.3421L8.30485 7.34212C9.15123 6.49575 10.2992 6.02026 11.4961 6.02026C12.6931 6.02026 13.841 6.49575 14.6874 7.34212C15.5337 8.18849 16.0092 9.33642 16.0092 10.5334C16.0092 11.7303 15.5337 12.8783 14.6874 13.7246L13.0974 15.3146L12.0324 14.2496L13.6224 12.6371C13.9027 12.3565 14.1245 12.0231 14.2751 11.6562C14.4258 11.2893 14.5021 10.8962 14.4999 10.4996C14.5076 10.1043 14.4359 9.71135 14.2891 9.34419C14.1422 8.97702 13.9231 8.64307 13.6449 8.36212C13.3661 8.08207 13.0348 7.85984 12.6699 7.7082C12.305 7.55656 11.9137 7.4785 11.5186 7.4785C11.1235 7.4785 10.7322 7.55656 10.3673 7.7082C10.0024 7.85984 9.67111 8.08207 9.39235 8.36212L3.39235 14.3621C3.1123 14.6409 2.89007 14.9722 2.73843 15.3371C2.5868 15.702 2.50873 16.0932 2.50873 16.4884C2.50873 16.8835 2.5868 17.2748 2.73843 17.6396Z" fill="white"/>
</g>
<defs>
<clipPath id="clip0_1547_16985">
<rect width="24" height="24" fill="white" transform="translate(0.25)"/>
</clipPath>
</defs>
</svg>
