<svg width="16" height="16" viewBox="0 0 16 16" fill="none" xmlns="http://www.w3.org/2000/svg">
<path d="M12.975 3.82515L12.9774 3.8232C12.9315 3.7685 12.8789 3.72015 12.8311 3.66695C12.7391 3.5644 12.6475 3.46195 12.5494 3.36545C12.4803 3.29755 12.4066 3.2348 12.3344 3.1701C12.2428 3.08785 12.1515 3.0058 12.0553 2.9289C11.9757 2.86495 11.8931 2.8056 11.8106 2.74555C11.7145 2.67555 11.6178 2.60715 11.5179 2.54245C11.4307 2.48605 11.3417 2.43305 11.2518 2.38055C11.1491 2.32102 11.0448 2.26422 10.9391 2.21015C10.8468 2.16305 10.7541 2.11785 10.6591 2.07515C10.5479 2.02515 10.4346 1.97945 10.3201 1.9355C10.2254 1.89935 10.1313 1.86275 10.0345 1.831C9.9113 1.79025 9.78545 1.7563 9.6591 1.72285C9.5667 1.6982 9.47541 1.6716 9.38141 1.6513C9.23641 1.6196 9.08815 1.5976 8.93975 1.5759C8.86025 1.5644 8.78251 1.5483 8.70206 1.5395C7.63435 1.42095 6.55393 1.57026 5.5584 1.97395C4.56287 2.37764 3.68359 3.02299 3.00001 3.8517V2.00015H2.00001V6.00015H6.00001V5.00015H3.40576C3.90253 4.23358 4.58304 3.60333 5.3854 3.16672C6.18777 2.73011 7.08654 2.50097 8.00001 2.50015C8.19863 2.50067 8.39708 2.51183 8.5945 2.5336C8.6626 2.5409 8.72851 2.5546 8.79581 2.56435C8.92126 2.58265 9.0465 2.60145 9.16921 2.6281C9.24881 2.6454 9.32641 2.6681 9.40481 2.68885C9.51136 2.71695 9.6177 2.74575 9.72155 2.77995C9.80371 2.8073 9.88406 2.8383 9.96451 2.86905C10.0608 2.90615 10.1563 2.9445 10.2498 2.9865C10.3303 3.02285 10.4094 3.0615 10.4879 3.1015C10.5771 3.14693 10.6648 3.19472 10.751 3.24485C10.8275 3.2895 10.9033 3.33485 10.9776 3.38275C11.0615 3.4372 11.143 3.49485 11.2237 3.5534C11.294 3.6047 11.3645 3.65525 11.4322 3.70965C11.513 3.77435 11.59 3.84345 11.6672 3.9128C11.7284 3.9678 11.7911 4.0212 11.8498 4.0788C11.9332 4.1606 12.0109 4.24775 12.089 4.33465C12.684 4.99835 13.1087 5.7968 13.3264 6.66116C13.5441 7.52553 13.5483 8.42987 13.3386 9.29623C13.129 10.1626 12.7118 10.965 12.123 11.6342C11.5343 12.3034 10.7916 12.8194 9.95896 13.1377C9.12636 13.4559 8.22885 13.5669 7.3438 13.4611C6.45875 13.3553 5.61271 13.0358 4.87863 12.5302C4.14455 12.0245 3.54445 11.348 3.13007 10.5588C2.71568 9.76963 2.49945 8.89151 2.50001 8.00015H1.50001C1.49868 9.04572 1.74961 10.0762 2.2315 11.0041C2.71338 11.932 3.412 12.73 4.26807 13.3303C5.12414 13.9306 6.11239 14.3155 7.14896 14.4524C8.18554 14.5893 9.23984 14.4741 10.2224 14.1166C11.205 13.7591 12.0868 13.1699 12.793 12.3989C13.4993 11.6279 14.0091 10.6979 14.2793 9.68785C14.5494 8.67778 14.5719 7.61745 14.3449 6.59683C14.1178 5.5762 13.6479 4.62542 12.975 3.82515Z" fill="#B7B7B7"/>
</svg>
