<svg xmlns="http://www.w3.org/2000/svg" width="20" height="20" viewBox="0 0 20 20" fill="none">
  <path fill-rule="evenodd" clip-rule="evenodd" d="M5.16113 17.5049C5.30273 17.6758 5.50049 17.7612 5.75439 17.7612C5.93506 17.7612 6.10107 17.7124 6.25244 17.6147C6.40381 17.5171 6.58936 17.3706 6.80908 17.1753L9.33594 14.9268H15.3955C16.123 14.9268 16.7358 14.7974 17.2339 14.5386C17.7319 14.2749 18.1079 13.894 18.3618 13.396C18.6206 12.8979 18.75 12.29 18.75 11.5723V5.96191C18.75 5.24414 18.6206 4.63623 18.3618 4.13818C18.1079 3.64014 17.7319 3.26172 17.2339 3.00293C16.7358 2.73926 16.123 2.60742 15.3955 2.60742H4.60449C3.87695 2.60742 3.26416 2.73926 2.76611 3.00293C2.26807 3.26172 1.88965 3.64014 1.63086 4.13818C1.37695 4.63623 1.25 5.24414 1.25 5.96191V11.5723C1.25 12.29 1.37695 12.8979 1.63086 13.396C1.88965 13.894 2.26807 14.2749 2.76611 14.5386C3.26416 14.7974 3.87695 14.9268 4.60449 14.9268H4.95605V16.8311C4.95605 17.1143 5.02441 17.3389 5.16113 17.5049ZM8.39844 14.0918L6.05469 16.4209V14.2969C6.05469 14.0967 6.01318 13.9551 5.93018 13.8721C5.84717 13.7891 5.70557 13.7476 5.50537 13.7476H4.60449C3.8623 13.7476 3.31299 13.5645 2.95654 13.1982C2.60498 12.8271 2.4292 12.2827 2.4292 11.5649V5.96191C2.4292 5.24902 2.60498 4.70947 2.95654 4.34326C3.31299 3.97217 3.8623 3.78662 4.60449 3.78662H15.3955C16.1328 3.78662 16.6797 3.97217 17.0361 4.34326C17.3926 4.70947 17.5708 5.24902 17.5708 5.96191V11.5649C17.5708 12.2827 17.3926 12.8271 17.0361 13.1982C16.6797 13.5645 16.1328 13.7476 15.3955 13.7476H9.29199C9.08691 13.7476 8.9209 13.7695 8.79395 13.8135C8.66699 13.8574 8.53516 13.9502 8.39844 14.0918ZM10.625 5H9.375V9.375H10.625V5ZM10 10.625C9.81458 10.625 9.63332 10.68 9.47915 10.783C9.32498 10.886 9.20482 11.0324 9.13386 11.2037C9.06291 11.375 9.04434 11.5635 9.08051 11.7454C9.11669 11.9273 9.20598 12.0943 9.33709 12.2254C9.4682 12.3565 9.63525 12.4458 9.8171 12.482C9.99896 12.5182 10.1875 12.4996 10.3588 12.4286C10.5301 12.3577 10.6765 12.2375 10.7795 12.0833C10.8825 11.9292 10.9375 11.7479 10.9375 11.5625C10.9375 11.3139 10.8387 11.0754 10.6629 10.8996C10.4871 10.7238 10.2486 10.625 10 10.625Z" fill="#DE350B"/>
</svg>