  <svg xmlns="http://www.w3.org/2000/svg" width="16" height="16" viewBox="0 0 16 16" fill="none">
      <path
        d="M12.5334 4.04604C13.861 4.99331 14.882 6.30882 15.47 7.83C15.5097 7.93985 15.5097 8.06015 15.47 8.17C14.882 9.69118 13.861 11.0067 12.5334 11.954C11.2058 12.9012 9.62977 13.4387 8.00003 13.5C6.37029 13.4387 4.79423 12.9012 3.46663 11.954C2.13904 11.0067 1.11811 9.69118 0.530031 8.17C0.490315 8.06015 0.490315 7.93985 0.530031 7.83C1.11811 6.30882 2.13904 4.99331 3.46663 4.04604C4.79423 3.09878 6.37029 2.56129 8.00003 2.5C9.62977 2.56129 11.2058 3.09878 12.5334 4.04604ZM1.53503 8C2.55003 10.535 5.35003 12.5 8.00003 12.5C10.65 12.5 13.45 10.535 14.465 8C13.45 5.465 10.65 3.5 8.00003 3.5C5.35003 3.5 2.55003 5.465 1.53503 8ZM6.33332 5.50559C6.82667 5.17595 7.40669 5 8.00003 5C8.79568 5 9.55874 5.31607 10.1214 5.87868C10.684 6.44129 11 7.20435 11 8C11 8.59334 10.8241 9.17336 10.4944 9.66671C10.1648 10.1601 9.69626 10.5446 9.14808 10.7716C8.5999 10.9987 7.9967 11.0581 7.41476 10.9424C6.83282 10.8266 6.29827 10.5409 5.87871 10.1213C5.45915 9.70176 5.17343 9.16721 5.05768 8.58527C4.94192 8.00333 5.00133 7.40013 5.22839 6.85195C5.45546 6.30377 5.83997 5.83524 6.33332 5.50559ZM6.88889 9.66294C7.21779 9.8827 7.60447 10 8.00003 10C8.53047 10 9.03917 9.78929 9.41424 9.41421C9.78932 9.03914 10 8.53043 10 8C10 7.60444 9.88273 7.21776 9.66297 6.88886C9.44321 6.55996 9.13085 6.30362 8.7654 6.15224C8.39995 6.00087 7.99781 5.96126 7.60985 6.03843C7.22189 6.1156 6.86552 6.30608 6.58582 6.58579C6.30611 6.86549 6.11563 7.22186 6.03846 7.60982C5.96129 7.99778 6.0009 8.39991 6.15227 8.76537C6.30365 9.13082 6.55999 9.44318 6.88889 9.66294Z"
        fill="#949494"
      />
</svg>