 <svg xmlns="http://www.w3.org/2000/svg" width="32" height="20" viewBox="0 0 32 20" fill="none">
      <path
        d="M28.2571 10.5581C29.0338 10.5581 29.6855 10.6895 30.2122 10.9524C30.739 11.2107 31.1362 11.5778 31.4041 12.0536C31.6719 12.5249 31.8058 13.0778 31.8058 13.7122C31.8058 14.2152 31.7121 14.648 31.5246 15.0106C31.3371 15.3686 31.1162 15.6586 30.8617 15.8807C30.6117 16.0982 30.3908 16.25 30.1988 16.3361L32 19.8369H29.0873L27.6009 16.6828H26.7438V19.8369H24.1526V10.5581H28.2571ZM26.7438 14.8678H27.8486C28.1879 14.8678 28.478 14.7726 28.7191 14.5823C28.9601 14.392 29.0806 14.0997 29.0806 13.7054C29.0806 13.3066 28.9579 13.0075 28.7124 12.8081C28.4669 12.6042 28.1812 12.5022 27.8553 12.5022H26.7438V14.8678Z"
        fill="black"
      />
      <path
        d="M23.4045 17.7568V19.8369H16.99V10.5581H23.4045V12.6382H19.608V14.2492H23.1568V16.139H19.608V17.7568H23.4045Z"
        fill="black"
      />
      <path
        d="M11.1332 14.7521V15.663C11.1332 16.1252 11.189 16.5172 11.3006 16.839C11.4121 17.1562 11.5751 17.3986 11.7893 17.5663C12.0081 17.7295 12.2692 17.811 12.5727 17.811C12.8629 17.811 13.1084 17.7431 13.3093 17.6071C13.5101 17.4666 13.6619 17.2786 13.7646 17.0429C13.8673 16.8027 13.9208 16.5353 13.9253 16.2408H16.4295C16.4295 16.2997 16.4295 16.3609 16.4295 16.4243C16.4295 16.4878 16.4295 16.5512 16.4295 16.6147C16.425 17.2944 16.2554 17.8881 15.9206 18.3956C15.5903 18.9032 15.1327 19.2975 14.548 19.5784C13.9677 19.8594 13.3026 19.9999 12.5527 19.9999C11.6644 19.9999 10.9122 19.8209 10.2962 19.4629C9.68465 19.1003 9.21818 18.595 8.89678 17.947C8.57985 17.2944 8.42139 16.5263 8.42139 15.6426V14.7521C8.42139 13.8684 8.57985 13.1025 8.89678 12.4545C9.21818 11.8019 9.68465 11.2966 10.2962 10.9386C10.9122 10.5806 11.6644 10.4016 12.5527 10.4016C13.1151 10.4016 13.6329 10.4809 14.1061 10.6395C14.5792 10.7981 14.9877 11.027 15.3314 11.3261C15.6751 11.6252 15.9429 11.9855 16.1349 12.4069C16.3313 12.8238 16.4295 13.2906 16.4295 13.8072C16.4295 13.8707 16.4295 13.9319 16.4295 13.9908C16.4295 14.0497 16.4295 14.1109 16.4295 14.1743H13.9253C13.9208 13.8707 13.865 13.601 13.7579 13.3654C13.6552 13.1252 13.5034 12.9371 13.3026 12.8012C13.1062 12.6607 12.8629 12.5905 12.5727 12.5905C12.2692 12.5905 12.0103 12.6743 11.796 12.842C11.5818 13.0051 11.4166 13.2476 11.3006 13.5693C11.189 13.8865 11.1332 14.2808 11.1332 14.7521Z"
        fill="black"
      />
      <path
        fill-rule="evenodd"
        clip-rule="evenodd"
        d="M3.50458 10.5581H2.8187L0 19.8369H2.61556L4.46942 13.7342L6.32328 19.8369H8.93884L6.12014 10.5581H5.43426H3.50458Z"
        fill="black"
      />
      <path
        d="M19.387 9.27878H16.9497V0H18.9584L22.2192 4.76514H22.3264V0H24.7569V9.27878H22.7683L19.4874 4.43886H19.387V9.27878Z"
        fill="black"
      />
      <path
        d="M12.0904 7.22589C12.4788 7.22589 12.7979 7.1058 13.0479 6.86562C13.3023 6.6209 13.4296 6.2357 13.4296 5.71002V0H16.0811V6.07029C16.0811 6.75006 15.9181 7.34372 15.5923 7.85127C15.2709 8.3543 14.8111 8.74629 14.213 9.02726C13.6193 9.3037 12.9118 9.44192 12.0904 9.44192C11.2735 9.44192 10.566 9.3037 9.96786 9.02726C9.36971 8.74629 8.90993 8.3543 8.58854 7.85127C8.26714 7.34372 8.10645 6.75006 8.10645 6.07029V0H10.7513V5.71002C10.7513 6.24023 10.8762 6.62543 11.1262 6.86562C11.3807 7.1058 11.7021 7.22589 12.0904 7.22589Z"
        fill="black"
      />
      <path
        d="M4.10449 0C4.88119 0 5.53291 0.131421 6.05964 0.394263C6.58637 0.652573 6.98365 1.01965 7.25148 1.49548C7.51931 1.96678 7.65322 2.51966 7.65322 3.1541C7.65322 3.65713 7.55948 4.08991 7.372 4.45245C7.18452 4.81046 6.96356 5.10049 6.70913 5.32255C6.45915 5.54008 6.23819 5.69189 6.04625 5.77799L7.8474 9.27878H4.93476L3.4483 6.12467H2.59125V9.27878H0V0H4.10449ZM2.59125 4.3097H3.69605C4.0353 4.3097 4.32544 4.21454 4.56649 4.0242C4.80754 3.83387 4.92806 3.54157 4.92806 3.14731C4.92806 2.74851 4.80531 2.44942 4.5598 2.25002C4.31429 2.04609 4.0286 1.94412 3.70274 1.94412H2.59125V4.3097Z"
        fill="black"
      />
    </svg>