  <svg xmlns="http://www.w3.org/2000/svg" width="18" height="10" viewBox="0 0 18 10" fill="none">
      <path
        fill-rule="evenodd"
        clip-rule="evenodd"
        d="M12.1508 0.161133H11.4518L8.5791 9.83881H11.2448L13.1341 3.47386L15.0234 9.83881H17.6891L14.8164 0.161133H14.1174H12.1508Z"
        fill="black"
      />
      <path
        d="M4.49273 0.171631C5.28405 0.171631 5.94802 0.308553 6.48466 0.582396C7.0213 0.851518 7.42605 1.23395 7.69892 1.7297C7.97179 2.22073 8.10822 2.79675 8.10822 3.45775C8.10822 3.98183 8.01272 4.43273 7.82171 4.81044C7.63071 5.18343 7.40559 5.48561 7.14637 5.71696C6.89169 5.94359 6.66657 6.10175 6.47102 6.19146L8.30605 9.83877H5.33862L3.8242 6.55265H2.95103V9.83877H0.311035V0.171631H4.49273ZM2.95103 4.66172H4.07661C4.42224 4.66172 4.71785 4.56257 4.96343 4.36427C5.20901 4.16597 5.3318 3.86143 5.3318 3.45067C5.3318 3.03518 5.20673 2.72357 4.9566 2.51582C4.70648 2.30336 4.41542 2.19713 4.08343 2.19713H2.95103V4.66172Z"
        fill="black"
      />
</svg>