<svg width="179" height="57" viewBox="0 0 179 57" fill="none" xmlns="http://www.w3.org/2000/svg">
<path d="M68 21.5L71 13H106L112 5L122.5 1.5L124 1H127L131.5 3.5L134 4L135 5H133.5L132 5.5L129.5 9L138 13H165L166 13.5L174 17.5L176 25L169.5 33.5L159.5 38.5L173 54.5H157L144.5 39.5H133L128 54.5H113.5L122 30H163V22H124.5L128 13L124.5 9L121.5 11.5L124 13L121 22H104.5L93.5 54.5H79.5L83 43.5H70.5L57 51L60 43L69 36.5L71 38L80.5 37.5L87 32.5L90.5 21.5H68Z" fill="#50C85A"/>
<path d="M44.5 13H15L12 21.5H50.5V29H9.5L6 38.5L46 38L45.5 45H4L1 54.5H43.5L51.5 50.5L54.5 45.5L55.5 38.5L54 33L53 27V26.5L53.5 23.5L44.5 13Z" fill="#50C85A"/>
<path d="M68 21.5L71 13H106L112 5L122.5 1.5L124 1H127L131.5 3.5L134 4L135 5H133.5L132 5.5L129.5 9L138 13H165L166 13.5L174 17.5L176 25L169.5 33.5L159.5 38.5L173 54.5H157L144.5 39.5H133L128 54.5H113.5L122 30H163V22H124.5L128 13L124.5 9L121.5 11.5L124 13L121 22H104.5L93.5 54.5H79.5L83 43.5H70.5L57 51L60 43L69 36.5L71 38L80.5 37.5L87 32.5L90.5 21.5H68Z" stroke="#50C85A"/>
<path d="M44.5 13H15L12 21.5H50.5V29H9.5L6 38.5L46 38L45.5 45H4L1 54.5H43.5L51.5 50.5L54.5 45.5L55.5 38.5L54 33L53 27V26.5L53.5 23.5L44.5 13Z" stroke="#50C85A"/>
<path d="M31.9999 38.4611C34 38.4416 44.0776 38.4652 46.13 38.4416C48.1825 38.418 50.2002 37.9087 52.018 36.9554C53.8358 36.0022 55.402 34.632 56.5885 32.9571C57.775 31.2821 58.5481 29.3501 58.8443 27.319C59.1406 25.2879 58.9517 23.2155 58.2932 21.2714C57.6346 19.3273 56.525 17.5668 55.0553 16.134C53.5856 14.7011 51.7974 13.6367 49.8372 13.0277C47.877 12.4188 45.8005 12.2827 43.7776 12.6305L52 22.4999L51.5 29.9611L44.4999 29.9611L31.9999 38.4611Z" fill="#50C85A"/>
<path d="M151 38.4417C152.839 39.3529 163.078 38.4458 165.13 38.4222C167.183 38.3986 169.2 37.8893 171.018 36.936C172.836 35.9827 174.402 34.6126 175.589 32.9376C176.775 31.2627 177.548 29.3306 177.844 27.2995C178.141 25.2684 177.952 23.196 177.293 21.252C176.635 19.3079 175.525 17.5474 174.055 16.1146C172.586 14.6817 170.797 13.6173 168.837 13.0083C166.877 12.3994 164.801 12.2632 162.778 12.611L164.981 25.423L163.5 29.9417L151 38.4417Z" fill="#50C85A"/>
<circle cx="136" cy="4" r="3" fill="#50C85A"/>
<path d="M29.9999 54.8743C32 54.8548 41.9475 55.0236 44 55C46.0525 54.9764 48.2002 54.3219 50.018 53.3686C51.8358 52.4153 53.4021 51.0452 54.5886 49.3702C55.7751 47.6953 56.5481 45.7632 56.8444 43.7321C57.1407 41.701 56.9518 39.6286 56.2932 37.6846C55.6346 35.7405 54.5251 33.98 53.0553 32.5471C51.5856 31.1143 49.7974 30.0498 47.8373 29.4409C45.8771 28.8319 43.8006 28.6958 41.7776 29.0436L51 44L42.4999 46.3743L29.9999 54.8743Z" fill="#50C85A"/>
</svg>
