 <svg xmlns="http://www.w3.org/2000/svg" width="103" height="18" viewBox="0 0 103 18" fill="none">
      <g id="RUNACER">
        <path
          id="Vector"
          d="M95.5768 0.534912C96.9616 0.534912 98.1235 0.774525 99.0626 1.25375C100.002 1.72471 100.71 2.39398 101.188 3.26154C101.665 4.12084 101.904 5.12887 101.904 6.28562C101.904 7.20276 101.737 7.99183 101.402 8.65283C101.068 9.30557 100.674 9.83437 100.221 10.2392C99.7749 10.6358 99.381 10.9126 99.0388 11.0696L102.25 17.4524H97.0571L94.4068 11.7017H92.8788V17.4524H88.2588V0.534912H95.5768ZM92.8788 8.39256H94.8485C95.4534 8.39256 95.9707 8.21905 96.4005 7.87202C96.8302 7.525 97.0451 6.99207 97.0451 6.27323C97.0451 5.54613 96.8263 5.0008 96.3885 4.63725C95.9508 4.26544 95.4415 4.07953 94.8605 4.07953H92.8788V8.39256Z"
          fill="#111111"
        />
        <path
          id="Vector_2"
          d="M86.925 13.6599V17.4524H75.4884V0.534912H86.925V4.32741H80.1561V7.26473H86.4833V10.7102H80.1561V13.6599H86.925Z"
          fill="#111111"
        />
        <path
          id="Vector_3"
          d="M65.0462 8.18201V9.84278C65.0462 10.6856 65.1457 11.4003 65.3446 11.9869C65.5436 12.5653 65.8341 13.0073 66.2161 13.313C66.6061 13.6105 67.0716 13.7592 67.6128 13.7592C68.1301 13.7592 68.5679 13.6353 68.926 13.3874C69.2841 13.1313 69.5547 12.7884 69.7378 12.3587C69.9208 11.9208 70.0163 11.4333 70.0243 10.8962H74.4891C74.4891 11.0037 74.4891 11.1152 74.4891 11.2309C74.4891 11.3466 74.4891 11.4622 74.4891 11.5779C74.4811 12.8173 74.1787 13.8997 73.5818 14.8251C72.9929 15.7505 72.1771 16.4693 71.1345 16.9816C70.0999 17.4939 68.9141 17.75 67.577 17.75C65.9933 17.75 64.6522 17.4236 63.5539 16.7709C62.4636 16.1099 61.6319 15.1886 61.0589 14.0071C60.4938 12.8173 60.2113 11.4168 60.2113 9.8056V8.18201C60.2113 6.57082 60.4938 5.17446 61.0589 3.99292C61.6319 2.80312 62.4636 1.88185 63.5539 1.22911C64.6522 0.576369 65.9933 0.25 67.577 0.25C68.5798 0.25 69.503 0.394594 70.3466 0.683782C71.1902 0.97297 71.9185 1.39023 72.5313 1.93555C73.1441 2.48088 73.6216 3.13775 73.9638 3.90616C74.314 4.66631 74.4891 5.51735 74.4891 6.45928C74.4891 6.57495 74.4891 6.6865 74.4891 6.79391C74.4891 6.90132 74.4891 7.01287 74.4891 7.12854H70.0243C70.0163 6.57495 69.9169 6.08333 69.7259 5.65368C69.5428 5.21577 69.2722 4.87288 68.9141 4.625C68.5639 4.36886 68.1301 4.24079 67.6128 4.24079C67.0716 4.24079 66.61 4.39365 66.228 4.69936C65.846 4.99681 65.5515 5.43886 65.3446 6.0255C65.1457 6.60387 65.0462 7.32271 65.0462 8.18201Z"
          fill="#111111"
        />
        <path
          id="Union"
          d="M51.6021 0.516602H50.3789L45.3517 17.4525H50.0166L53.3229 6.31388L56.6293 17.4525H61.2942L56.267 0.516602H55.0438H51.6021Z"
          fill="black"
        />
        <path
          id="Vector_4"
          d="M35.3154 17.4524H30.97V0.534912H34.5514L40.3651 9.22294H40.5561V0.534912H44.8896V17.4524H41.3441L35.4945 8.62804H35.3154V17.4524Z"
          fill="#111111"
        />
        <path
          id="Vector_5"
          d="M22.3064 13.7095C22.9988 13.7095 23.5678 13.4905 24.0135 13.0526C24.4672 12.6064 24.694 11.9041 24.694 10.9457V0.534912H29.4214V11.6025C29.4214 12.8419 29.1309 13.9243 28.5499 14.8497C27.9769 15.7669 27.1572 16.4816 26.0907 16.9938C25.0322 17.4978 23.7708 17.7499 22.3064 17.7499C20.85 17.7499 19.5885 17.4978 18.5221 16.9938C17.4556 16.4816 16.6359 15.7669 16.0628 14.8497C15.4898 13.9243 15.2033 12.8419 15.2033 11.6025V0.534912H19.9188V10.9457C19.9188 11.9124 20.1416 12.6147 20.5873 13.0526C21.041 13.4905 21.614 13.7095 22.3064 13.7095Z"
          fill="#111111"
        />
        <path
          id="Vector_6"
          d="M8.06797 0.534912C9.45277 0.534912 10.6147 0.774525 11.5538 1.25375C12.493 1.72471 13.2013 2.39398 13.6788 3.26154C14.1563 4.12084 14.3951 5.12887 14.3951 6.28562C14.3951 7.20276 14.228 7.99183 13.8937 8.65283C13.5594 9.30557 13.1655 9.83437 12.7118 10.2392C12.2661 10.6358 11.8722 10.9126 11.53 11.0696L14.7413 17.4524H9.54827L6.89805 11.7017H5.36999V17.4524H0.75V0.534912H8.06797ZM5.36999 8.39256H7.33975C7.94461 8.39256 8.46192 8.21905 8.89168 7.87202C9.32145 7.525 9.53633 6.99207 9.53633 6.27323C9.53633 5.54613 9.31747 5.0008 8.87975 4.63725C8.44202 4.26544 7.93267 4.07953 7.35169 4.07953H5.36999V8.39256Z"
          fill="#111111"
        />
      </g>
</svg>