 <svg xmlns="http://www.w3.org/2000/svg" width="24" height="24" viewBox="0 0 24 24" fill="none">
      <path
        d="M12.4592 1.66031C12.3261 1.55642 12.1621 1.5 11.9932 1.5C11.8243 1.5 11.6603 1.55642 11.5272 1.66031L0.75 10.0645L1.68203 11.2433L3 10.2156V19.5C3.00081 19.8975 3.15911 20.2786 3.44024 20.5597C3.72137 20.8408 4.10242 20.9991 4.5 21H19.5C19.8976 20.9992 20.2787 20.841 20.5599 20.5598C20.841 20.2787 20.9993 19.8976 21 19.5V10.2225L22.318 11.25L23.25 10.0711L12.4592 1.66031ZM14.25 13.5V19.5H9.75V13.5C9.7504 13.1023 9.90856 12.721 10.1898 12.4397C10.471 12.1585 10.8523 12.0004 11.25 12H12.75C13.1477 12.0004 13.529 12.1586 13.8102 12.4398C14.0914 12.721 14.2495 13.1023 14.25 13.5Z"
        fill="#111111"
      />
</svg>