<svg xmlns="http://www.w3.org/2000/svg" width="24" height="24" viewBox="0 0 24 24" fill="none">
      <path
        d="M7.63478 9.66674C7.05791 8.80339 6.75 7.78835 6.75 6.75C6.75 5.35761 7.30312 4.02226 8.28769 3.03769C9.27226 2.05312 10.6076 1.5 12 1.5C13.0384 1.5 14.0534 1.80791 14.9167 2.38478C15.7801 2.96166 16.453 3.7816 16.8504 4.74091C17.2477 5.70022 17.3517 6.75582 17.1491 7.77422C16.9466 8.79262 16.4465 9.72808 15.7123 10.4623C14.9781 11.1965 14.0426 11.6966 13.0242 11.8991C12.0058 12.1017 10.9502 11.9977 9.99091 11.6004C9.0316 11.203 8.21166 10.5301 7.63478 9.66674ZM19.5 18.75V22.5H4.5V18.75C4.50163 17.3581 5.05527 16.0237 6.03949 15.0395C7.0237 14.0553 8.35811 13.5016 9.75 13.5H14.25C15.6419 13.5016 16.9763 14.0553 17.9605 15.0395C18.9447 16.0237 19.4984 17.3581 19.5 18.75Z"
        fill="#111111"
      />
</svg>