<svg width="175" height="175" viewBox="0 0 175 175" fill="none" xmlns="http://www.w3.org/2000/svg">
<g id="sample_image">
<g id="Group">
<path id="Vector" d="M47.9343 136.675C47.9343 136.675 38.5779 139.256 44.6968 144.721C52.8938 152.037 103.247 150.302 103.247 150.302C103.247 150.302 127.075 150.915 128.845 142.335C128.845 142.335 126.652 135.213 121.648 136.175C116.644 137.138 108.213 139.64 108.213 139.64C108.213 139.64 114.716 145.39 100.668 143.258C91.3509 141.844 61.5554 139.871 61.5554 139.871C61.5554 139.871 50.6284 137.9 47.9343 136.675Z" fill="#50C85A"/>
<path id="Vector_2" d="M94.6662 58.2207C94.9716 61.0714 95.2787 61.7277 95.4747 63.2633C95.5318 63.5605 95.4933 63.8681 95.3647 64.1421C95.236 64.416 95.0239 64.6421 94.7587 64.7879C94.4935 64.9337 94.1889 64.9917 93.8887 64.9536C93.5885 64.9155 93.3081 64.7832 93.0877 64.5758C92.8182 64.3063 92.3562 64.6528 92.5872 64.9608C93.3957 66.2313 95.2866 66.6574 96.1292 65.1533C96.4489 64.4386 96.5168 63.6366 96.3217 62.8783C96.068 61.2981 95.6873 59.6881 95.2822 58.1437C95.2 57.8374 94.6286 57.8742 94.6662 58.2207Z" fill="#191919"/>
<path id="Vector_3" d="M95.8598 59.6066C96.9667 60.6942 99.2469 60.5306 99.7859 58.9136C99.9014 58.5636 99.4788 58.414 99.2469 58.6056C98.8944 58.9821 98.4595 59.272 97.9764 59.4526C97.3733 59.5834 96.7431 59.4875 96.2063 59.1831C95.9368 59.0291 95.627 59.3774 95.8598 59.6066Z" fill="#191919"/>
<path id="Vector_4" d="M87.5062 60.2225C88.5343 61.5096 90.7437 61.955 91.9328 60.6075C92.1253 60.415 91.9328 59.953 91.6248 60.107C91.0488 60.4314 90.3887 60.5755 89.7299 60.5206C89.0712 60.4657 88.444 60.2143 87.9297 59.799C87.6646 59.6004 87.3189 59.9871 87.5062 60.2225Z" fill="#191919"/>
<path id="Vector_5" d="M96.0523 56.4499C96.9474 55.5355 98.2083 55.7971 99.2854 55.2958C99.4048 55.2238 99.501 55.119 99.5624 54.9938C99.6238 54.8686 99.6478 54.7283 99.6316 54.5899C99.6153 54.4514 99.5595 54.3205 99.4708 54.2129C99.3821 54.1053 99.2643 54.0256 99.1314 53.9833C98.3106 53.8422 97.4663 53.9495 96.7068 54.2913C96.005 54.537 95.4165 55.0296 95.0513 55.6773C94.9699 55.811 94.9406 55.9701 94.9692 56.124C94.9977 56.2779 95.082 56.416 95.2059 56.5116C95.3299 56.6073 95.4848 56.6539 95.6409 56.6425C95.7971 56.6311 95.9435 56.5625 96.0523 56.4499Z" fill="#191919"/>
<path id="Vector_6" d="M91.9712 56.296C91.1683 55.9375 90.2738 55.8376 89.4115 56.0101C88.5493 56.1825 87.762 56.6188 87.1587 57.2585C86.8087 57.682 87.1158 58.5955 87.7712 58.3365C88.3696 58.0609 88.9872 57.8293 89.6192 57.6435C90.2947 57.5486 90.977 57.51 91.6589 57.528C91.8002 57.5197 91.9352 57.4665 92.0443 57.3763C92.1534 57.2861 92.231 57.1635 92.2658 57.0263C92.3006 56.8891 92.2908 56.7443 92.2378 56.613C92.1849 56.4817 92.0915 56.3707 91.9712 56.296Z" fill="#191919"/>
<path id="Vector_7" d="M89.2386 67.691C89.6244 68.1387 90.1299 68.4671 90.6958 68.6375C91.2616 68.808 91.8644 68.8136 92.4333 68.6535C92.7036 68.5388 92.6258 68.0768 92.3563 67.9998C91.8943 67.9228 91.434 67.957 90.9711 67.8458C90.4928 67.6938 90.0389 67.4733 89.6236 67.1913C89.2789 66.9945 89.0146 67.4153 89.2386 67.691Z" fill="#191919"/>
<path id="Vector_8" d="M84.9275 5.98399C84.1249 9.69112 84.3239 13.5451 85.5041 17.1499C85.5158 17.194 85.5361 17.2353 85.564 17.2715C85.5919 17.3076 85.6267 17.3378 85.6665 17.3602C85.7062 17.3826 85.7501 17.3968 85.7954 17.402C85.8407 17.4072 85.8867 17.4032 85.9304 17.3903C85.9742 17.3775 86.015 17.3559 86.0503 17.327C86.0856 17.2981 86.1148 17.2624 86.136 17.2221C86.1573 17.1817 86.1703 17.1375 86.1742 17.092C86.178 17.0465 86.1728 17.0008 86.1587 16.9574C85.5033 13.2552 84.966 9.91274 85.5041 6.14061C85.5811 5.79149 85.0001 5.59986 84.9275 5.98399Z" fill="#191919"/>
<path id="Vector_9" d="M82.117 4.59823C80.8793 8.80612 81.0951 13.3082 82.7295 17.3785C82.9237 17.8781 83.692 17.6462 83.4995 17.1475C81.8795 13.2158 81.5955 8.861 82.691 4.75223C82.7067 4.71297 82.7139 4.67083 82.7122 4.62858C82.7104 4.58633 82.6997 4.54494 82.6808 4.50712C82.6619 4.46931 82.6351 4.43593 82.6024 4.4092C82.5696 4.38246 82.5316 4.36298 82.4907 4.35202C82.4499 4.34106 82.4072 4.33888 82.3654 4.34563C82.3237 4.35238 82.2838 4.36789 82.2485 4.39115C82.2132 4.41442 82.1832 4.4449 82.1606 4.48059C82.1379 4.51629 82.1231 4.55638 82.117 4.59823Z" fill="#191919"/>
<path id="Vector_10" d="M79.268 10.0263C79.0545 13.6077 79.9122 17.1717 81.732 20.2638C81.788 20.3455 81.8726 20.4035 81.9691 20.4262C82.0656 20.449 82.1671 20.4349 82.2538 20.3867C82.3404 20.3386 82.406 20.2598 82.4377 20.1659C82.4694 20.0719 82.4648 19.9695 82.425 19.8788C80.841 16.8313 79.9845 13.4584 79.9225 10.0245C79.9225 9.60275 79.3065 9.64125 79.268 10.0263Z" fill="#191919"/>
<path id="Vector_11" d="M80.9235 22.5366C68.747 28.0211 52.1054 36.4718 45.2008 48.4051C37.989 60.8695 45.3889 74.9718 55.4383 83.2423C61.0728 87.851 67.6602 91.1513 74.725 92.905C74.8476 92.9407 74.9793 92.9263 75.0912 92.8649C75.2031 92.8036 75.286 92.7003 75.3218 92.5777C75.3575 92.4552 75.3431 92.3235 75.2817 92.2116C75.2204 92.0997 75.1171 92.0167 74.9945 91.981C62.9633 88.8389 51.6688 81.3558 45.9323 70.0771C42.5836 63.4945 42.0674 55.9415 45.6628 49.3291C52.2253 37.2541 68.9491 28.9416 81.193 23.0371C81.578 22.9251 81.2691 22.3808 80.9235 22.5366Z" fill="#191919"/>
<path id="Vector_12" d="M94.7817 6.33073C95.9317 9.95179 96.5034 13.7316 96.4757 17.5307C96.4757 17.6379 96.5183 17.7408 96.5941 17.8166C96.6699 17.8924 96.7728 17.935 96.88 17.935C96.9872 17.935 97.09 17.8924 97.1658 17.8166C97.2416 17.7408 97.2842 17.6379 97.2842 17.5307C97.4773 13.6254 96.8206 9.72472 95.3592 6.09798C95.3241 6.02791 95.2638 5.97364 95.1905 5.94593C95.1171 5.91823 95.036 5.91912 94.9633 5.94843C94.8906 5.97774 94.8315 6.03332 94.7979 6.10414C94.7643 6.17497 94.7585 6.25585 94.7817 6.33073Z" fill="#191919"/>
<path id="Vector_13" d="M98.3614 7.75415C98.882 10.7794 98.9997 13.8602 98.7114 16.9163C98.679 17.3398 99.3685 17.4168 99.4429 17.0318C99.9695 13.8933 99.8251 10.6788 99.0194 7.60015C98.9389 7.13815 98.2844 7.33153 98.3614 7.75415Z" fill="#191919"/>
<path id="Vector_14" d="M101.788 12.1822C101.924 14.2997 101.755 16.4257 101.287 18.4954C100.972 19.9557 99.7124 22.0732 100.055 23.538C100.331 24.7297 101.791 25.2644 102.712 25.8471C113.948 32.96 132.257 45.7551 131.044 59.0297C129.939 71.1047 115.469 82.4482 104.174 87.0543C103.598 87.2887 103.869 88.2521 104.444 88.0167C115.221 83.6024 127.11 75.0807 131.005 63.5728C136.266 48.0327 118.341 34.955 104.598 25.9635C102.309 24.4664 102.06 24.518 101.518 23.1924C100.906 21.6917 101.32 22.1774 101.98 19.0344C102.437 16.768 102.579 14.4498 102.404 12.1446C102.396 12.0655 102.357 11.9927 102.296 11.9413C102.236 11.8899 102.157 11.8639 102.078 11.8687C101.998 11.8736 101.924 11.9089 101.87 11.9673C101.816 12.0257 101.787 12.1027 101.788 12.1822Z" fill="#191919"/>
<path id="Vector_15" d="M88.0451 8.37068C88.0106 8.26807 87.9379 8.18271 87.8421 8.13233C87.7462 8.08195 87.6347 8.07044 87.5306 8.10018C87.4265 8.12992 87.3379 8.19863 87.2831 8.29203C87.2284 8.38542 87.2117 8.49632 87.2366 8.60168C88.3164 13.6443 89.8564 18.9967 86.7361 23.6149C84.0823 27.5428 79.8875 30.6254 76.4584 33.8157C69.8801 39.9459 63 46.3308 58.1236 54.0002C57.624 53.5302 57.0135 53.1943 56.349 53.0238C55.6845 52.8534 54.9877 52.8539 54.3235 53.0254C54.0531 53.0972 54.0925 53.6712 54.4399 53.6379C55.075 53.5771 55.7158 53.6425 56.3255 53.8304C56.7326 53.994 57.1137 54.216 57.4569 54.4893C57.433 54.5491 57.4278 54.6147 57.442 54.6774C59.9576 67.0254 68.2369 75.7553 75.2264 78.0504C75.3252 78.0797 75.4312 78.0723 75.5249 78.0295C75.6187 77.9867 75.6938 77.9115 75.7364 77.8177C75.7791 77.7239 75.7863 77.6179 75.7569 77.5191C75.7275 77.4204 75.6634 77.3356 75.5764 77.2804C71.0369 74.8112 67.1099 72.1976 63.9896 67.9652C61.207 64.0307 59.2099 59.5962 58.1079 54.9049C58.1657 54.9066 58.2231 54.8944 58.2753 54.8695C58.3275 54.8445 58.373 54.8075 58.408 54.7614C64.6205 46.3702 71.8778 39.2442 79.541 32.2031C82.8118 29.1992 87.0091 26.1209 88.7031 21.8868C90.3971 17.6527 89.3244 12.5882 88.0451 8.37068Z" fill="#191919"/>
<path id="Vector_16" d="M122.728 51.638C122.102 51.5149 121.454 51.5507 120.845 51.742C120.236 51.9334 119.684 52.2742 119.241 52.7335C112.661 46.3481 106.448 39.5948 100.633 32.5061C97.6351 28.769 94.6829 25.0738 93.5498 20.3033C92.4464 15.6431 92.9373 11.0283 92.8568 6.29196C92.8506 5.90696 92.1926 5.75121 92.1253 6.17558C91.4464 10.6248 91.5506 15.1585 92.4333 19.5718C93.3616 24.114 95.7023 27.6971 98.5154 31.3126C104.612 39.1491 111.401 46.9943 119.007 53.4693C117.688 55.495 116.572 57.6842 115.261 59.7221C113.785 61.828 112.066 63.753 110.141 65.4577C107.244 68.2577 104.482 71.1933 101.595 73.9653C101.326 74.3153 101.788 74.773 102.057 74.4658C105.098 71.6168 107.986 68.6147 111.026 65.7272C114.685 62.0996 117.727 57.9 120.034 53.2935C120.048 53.267 120.06 53.2391 120.068 53.2103C120.828 52.6172 121.764 52.2942 122.728 52.2925C123.075 52.2487 123.037 51.7123 122.728 51.638Z" fill="#191919"/>
<path id="Vector_17" d="M91.8558 115.578C91.8558 114.726 90.8172 114.725 90.8172 115.578C90.7375 116.271 91.8558 116.271 91.8558 115.578Z" fill="#191919"/>
<path id="Vector_18" d="M110.487 56.8749C109.584 56.7913 108.674 56.9233 107.832 57.2599C107.524 57.3754 107.331 56.8749 107.601 56.7218C108.495 56.228 109.504 55.9759 110.526 55.9903C110.627 55.778 110.744 55.5733 110.876 55.3778C111.116 54.8859 111.245 54.3473 111.255 53.7999C111.264 53.2525 111.152 52.7098 110.928 52.2103C110.704 51.7108 110.373 51.2666 109.958 50.9093C109.544 50.552 109.055 50.2902 108.528 50.1426C108.839 49.1609 108.944 48.1254 108.836 47.1011C108.764 46.5918 108.543 46.1152 108.2 45.7314C107.858 45.3477 107.409 45.0741 106.911 44.9451C106.218 44.8296 105.279 45.0694 104.948 44.4446C104.852 44.2132 104.813 43.9627 104.832 43.7131C104.782 43.2228 104.629 42.7485 104.382 42.3219C104.135 41.8952 103.801 41.5259 103.4 41.2384C103 40.9509 102.543 40.7517 102.06 40.6542C101.577 40.5566 101.078 40.5629 100.598 40.6725C100.163 41.1891 99.9309 41.8456 99.9434 42.5205C99.9379 42.5929 99.9076 42.6612 99.8575 42.7138C99.8074 42.7664 99.7407 42.8001 99.6686 42.8092C99.5966 42.8182 99.5236 42.8021 99.462 42.7635C99.4005 42.725 99.3542 42.6663 99.3309 42.5975C99.2611 42.1254 99.2937 41.6438 99.4266 41.1854C99.5595 40.727 99.7894 40.3026 100.101 39.941C99.6879 37.4639 96.8923 35.9493 93.5953 37.3239C93.4404 36.5122 93.0333 35.7701 92.432 35.2033C91.8308 34.6365 91.066 34.2738 90.2467 34.1669C89.425 34.0921 88.5981 34.234 87.8484 34.5786C87.0987 34.9231 86.4524 35.4582 85.974 36.1304C85.2181 35.6037 84.3203 35.3184 83.399 35.3121C82.4777 35.3057 81.5761 35.5786 80.813 36.0948C80.0498 36.611 79.461 37.3462 79.124 38.2037C78.7869 39.0612 78.7176 40.0006 78.925 40.8983C79.785 41.5863 80.4266 42.5091 80.7722 43.5548C80.8807 43.8645 80.3924 44.0526 80.2717 43.7849C79.9571 43.1111 79.5027 42.5121 78.9385 42.0276C78.3744 41.5432 77.7136 41.1844 77 40.9753C72.2007 40.7233 69.489 44.1918 69.9169 47.1344C69.2581 47.2053 68.6254 47.431 68.0704 47.7929C67.5154 48.1549 67.0538 48.6429 66.7232 49.2172C66.3927 49.7914 66.2025 50.4357 66.1683 51.0974C66.1341 51.7591 66.2568 52.4196 66.5263 53.0249C64.9872 53.6794 63.3317 54.5649 62.7157 56.1425C62.1032 57.798 62.8312 59.6845 63.7552 61.186C64.5637 62.5335 65.7187 63.9186 67.2552 64.2651C68.0056 63.7258 68.8374 63.3099 69.7192 63.0331C69.9869 62.9509 70.2197 63.3411 69.9887 63.4951C68.4924 64.6589 67.7224 64.7595 67.1782 65.5741C67.1324 66.4352 67.3235 67.2924 67.7308 68.0525C68.138 68.8126 68.7459 69.4465 69.4882 69.8853C70.4637 70.3729 71.5335 70.6427 72.6236 70.6759C73.7136 70.7092 74.7979 70.5051 75.8013 70.0778C75.8866 70.95 76.2173 71.7802 76.7551 72.4721C77.2929 73.1641 78.0158 73.6895 78.8399 73.9875C79.6641 74.2854 80.5558 74.3438 81.4118 74.1558C82.2678 73.9677 83.0529 73.541 83.6763 72.925C83.8163 74.6951 83.9117 76.4714 83.9283 78.2774C83.9283 78.8899 84.9153 78.8899 84.8908 78.2774C84.728 74.2638 84.8488 70.0664 83.7419 66.1779C83.986 65.8524 83.7419 65.2626 83.2738 65.4201C81.9613 65.8821 79.9243 65.2661 79.8473 63.6115C79.864 63.2816 79.9465 62.9584 80.0897 62.6608C80.233 62.3632 80.4343 62.0972 80.6817 61.8784C80.9291 61.6596 81.2177 61.4924 81.5306 61.3865C81.8435 61.2807 82.1744 61.2384 82.5038 61.2621C82.5711 61.2608 82.6362 61.2376 82.6892 61.196C82.7422 61.1545 82.7802 61.0968 82.7976 61.0317C82.815 60.9667 82.8107 60.8977 82.7855 60.8353C82.7603 60.7728 82.7155 60.7203 82.6578 60.6855C82.4952 60.6071 82.3227 60.5512 82.145 60.5193C82.2431 60.3607 82.3002 60.1803 82.3113 59.9943C82.4655 58.5127 82.9956 57.095 83.8513 55.8756C84.1334 55.5224 84.4997 55.2456 84.9166 55.0707C85.3336 54.8958 85.7877 54.8284 86.2374 54.8746C86.5123 54.9101 86.7902 54.8373 87.0126 54.6718C87.2349 54.5063 87.3843 54.2609 87.4292 53.9874C87.5151 53.6311 87.6759 53.2972 87.9009 53.0078C88.1259 52.7185 88.4098 52.4803 88.7339 52.3091C89.058 52.138 89.4149 52.0377 89.7807 52.0151C90.1465 51.9925 90.5129 52.048 90.8557 52.1779C90.9616 52.2161 91.0742 52.2324 91.1867 52.2258C91.2991 52.2192 91.4091 52.1898 91.5098 52.1394C91.6106 52.089 91.7 52.0186 91.7727 51.9326C91.8454 51.8465 91.8999 51.7466 91.9328 51.6389C92.0212 51.3339 92.1695 51.0496 92.3691 50.8026C92.5686 50.5556 92.8154 50.3508 93.095 50.2003C93.3746 50.0497 93.6814 49.9564 93.9974 49.9258C94.3135 49.8952 94.6325 49.9278 94.9358 50.0219C95.1964 50.1041 95.4782 50.0871 95.727 49.974C95.9758 49.8609 96.1739 49.6598 96.2833 49.4094C96.3689 49.1188 96.5246 48.8536 96.7368 48.6373C96.9489 48.421 97.211 48.2601 97.4999 48.1688C97.7888 48.0776 98.0958 48.0587 98.3937 48.1139C98.6916 48.1691 98.9714 48.2967 99.2084 48.4854C100.171 49.216 100.209 50.4104 100.44 51.4875C101.686 56.8303 103.208 62.824 100.633 67.7328C99.3976 70.0203 97.3261 71.742 94.8512 72.5382C92.3764 73.3344 89.6896 73.1435 87.3522 72.0054C86.9715 71.805 86.6977 72.3134 87.0022 72.5829C88.5498 73.7222 90.459 74.2599 92.3738 74.0958C92.4563 75.759 92.6552 77.4145 92.9688 79.05C92.9776 79.1798 93.0332 79.3019 93.1252 79.3938C93.2173 79.4857 93.3395 79.5411 93.4693 79.5496C94.2393 79.589 95.0574 79.7911 95.6638 79.204C95.7296 79.1376 95.7712 79.051 95.782 78.9581C95.7928 78.8653 95.7722 78.7714 95.7235 78.6917C95.6747 78.6119 95.6006 78.5507 95.513 78.518C95.4255 78.4852 95.3294 78.4828 95.2403 78.511C94.7946 78.6061 94.3374 78.6356 93.8832 78.5985C93.7616 77.0531 93.5211 75.5194 93.1639 74.0109C94.9066 73.7258 96.5631 73.0535 98.0116 72.0435C99.46 71.0335 100.663 69.7114 101.533 68.1746C102.777 68.1947 103.982 67.7439 104.907 66.9125C105.832 66.0811 106.409 64.9307 106.521 63.692C107.289 63.9153 108.111 63.8555 108.839 63.5236C109.566 63.1917 110.151 62.6097 110.485 61.8834C110.806 61.1497 110.975 60.3587 110.981 59.5581C110.988 58.7574 110.832 57.9638 110.524 57.2249C110.564 57.1811 110.526 57.0271 110.487 56.8749ZM75.8039 51.253C75.75 51.2195 75.7095 51.1682 75.6893 51.108C75.6691 51.0478 75.6705 50.9825 75.6933 50.9232C75.7161 50.864 75.7588 50.8145 75.8142 50.7833C75.8695 50.7522 75.9339 50.7413 75.9964 50.7525C76.3949 50.9387 76.8284 51.0382 77.2682 51.0446C77.7081 51.051 78.1442 50.964 78.548 50.7894C78.9517 50.6149 79.3139 50.3567 79.6105 50.032C79.9072 49.7072 80.1316 49.3232 80.269 48.9054C80.3845 48.5974 80.8929 48.6359 80.8815 48.9824C80.8273 51.5628 77.742 52.3013 75.8039 51.253ZM91.5093 40.6288C90.0472 40.8213 88.4302 41.6683 88.6612 43.3999C88.6997 43.7079 88.2377 43.7499 88.1607 43.4778C87.6602 41.4758 89.6237 40.0898 91.4717 40.0898C91.7403 40.0898 91.8182 40.5903 91.5093 40.6288Z" fill="#191919"/>
<path id="Vector_19" d="M106.715 98.8332C106.677 98.2942 106.175 98.4578 105.637 98.4097C103.131 98.1848 100.856 89.9799 100.594 88.0155C100.092 84.1095 99.8476 80.1745 99.8629 76.2363C99.8622 76.1159 99.8248 75.9986 99.7557 75.9C99.6867 75.8014 99.5892 75.7262 99.4763 75.6843C99.3634 75.6425 99.2404 75.6361 99.1238 75.6659C99.0072 75.6957 98.9024 75.7604 98.8234 75.8513C98.1544 76.9136 97.7215 78.1071 97.5538 79.3513C96.8618 82.4042 95.3741 85.2197 93.2418 87.5115C92.6478 88.172 91.8708 88.6411 91.0097 88.859C88.8152 89.3587 87.7433 87.7775 86.8517 86.3215C85.743 84.5068 84.6134 82.7445 83.503 80.9315C82.2299 78.8552 81.564 78.0834 79.191 78.0834C79.0997 78.0859 79.0103 78.1098 78.9299 78.1531C78.8495 78.1964 78.7803 78.258 78.728 78.3329C78.6757 78.4077 78.6417 78.4938 78.6286 78.5842C78.6156 78.6746 78.6239 78.7668 78.6529 78.8534C80.731 84.5505 79.6942 100.256 75.6884 100.333C75.2649 100.342 74.8755 102.9 76.1504 103.105C81.676 103.99 87.3128 105.096 92.8568 104.491C97.5135 103.982 101.813 103.768 105.907 102.027C106.134 101.935 106.326 101.774 106.457 101.567C106.589 101.36 106.652 101.117 106.638 100.872L106.715 98.8332ZM95.7058 87.8615C93.5183 89.4882 92.2005 92.7178 88.9307 91.442C86.0799 90.3299 84.2765 86.2935 82.656 83.9354C82.4688 83.6624 82.9264 83.3955 83.118 83.6659C84.6668 85.8534 86.1604 89.0533 88.543 90.4034C92.0089 92.3634 92.9583 88.6088 95.3952 87.3234C95.4665 87.2822 95.5513 87.2711 95.6309 87.2924C95.7105 87.3137 95.7783 87.3658 95.8195 87.4372C95.8607 87.5085 95.8719 87.5933 95.8506 87.6729C95.8292 87.7525 95.7771 87.8203 95.7058 87.8615Z" fill="#50C85A"/>
<path id="Vector_20" d="M75.8424 97.6785C75.8188 95.9227 75.6514 94.1718 75.3419 92.4433C75.2544 91.9437 74.4581 92.1345 74.5719 92.6743C74.9219 94.3281 75.1065 96.0273 75.3034 97.717C75.3375 97.9873 75.8424 98.025 75.8424 97.6785Z" fill="#191919"/>
<path id="Vector_21" d="M104.598 93.9053C104.745 91.8428 104.783 89.7741 104.713 87.7076C104.713 87.1695 103.828 87.1686 103.866 87.7076C103.905 89.7866 103.842 91.8674 104.02 93.9053C104.02 93.9818 104.05 94.0553 104.105 94.1094C104.159 94.1636 104.232 94.194 104.309 94.194C104.385 94.194 104.459 94.1636 104.513 94.1094C104.567 94.0553 104.598 93.9818 104.598 93.9053Z" fill="#191919"/>
<path id="Vector_22" d="M164.804 139.483C164.887 139.471 164.963 139.43 165.019 139.366C165.074 139.302 165.104 139.221 165.104 139.137C165.104 139.052 165.074 138.971 165.019 138.907C164.963 138.843 164.887 138.802 164.804 138.79C163.625 138.697 162.455 138.517 161.304 138.251C161.274 136.993 161.034 135.749 160.593 134.571C161.753 134.8 162.944 134.834 164.115 134.671C164.202 134.671 164.285 134.637 164.346 134.576C164.408 134.514 164.442 134.431 164.442 134.344C164.442 134.257 164.408 134.174 164.346 134.113C164.285 134.051 164.202 134.017 164.115 134.017C162.845 133.978 161.573 133.863 160.303 133.863C159.931 133.039 159.474 132.257 158.939 131.528C160.226 131.618 161.517 131.64 162.806 131.591C163.23 131.591 163.23 130.93 162.806 130.898C161.462 130.785 160.112 130.76 158.764 130.822C158.714 130.83 158.666 130.847 158.623 130.873C158.58 130.9 158.542 130.934 158.512 130.975C157.961 130.299 157.354 129.669 156.699 129.093C157.574 128.972 158.449 128.831 159.303 128.628C159.653 128.551 159.611 127.935 159.226 127.973C158.15 128.101 157.082 128.286 156.027 128.527C155.074 127.771 154.062 127.094 153.001 126.501C153.815 126.356 154.621 126.167 155.415 125.933C155.838 125.817 155.645 125.233 155.222 125.278C154.139 125.419 153.069 125.651 152.024 125.973C152.112 125.973 150.285 125.125 149.043 124.634C150.466 124.212 151.841 123.641 153.144 122.93C153.209 122.895 153.258 122.837 153.282 122.768C153.306 122.698 153.304 122.623 153.275 122.555C153.246 122.488 153.193 122.434 153.126 122.403C153.059 122.373 152.983 122.369 152.913 122.392C151.28 122.876 149.698 123.518 148.188 124.308C146.459 123.669 146.001 123.589 146.088 123.589C147.514 122.97 148.906 122.275 150.258 121.506C150.322 121.461 150.369 121.395 150.39 121.319C150.411 121.243 150.406 121.162 150.374 121.089C150.342 121.017 150.286 120.958 150.216 120.923C150.146 120.887 150.065 120.877 149.988 120.894C148.818 121.323 147.689 121.858 146.616 122.493C146.979 121.724 147.112 120.866 147 120.023C146.888 119.179 146.536 118.386 145.985 117.738C144.06 115.505 140.98 114.273 138.209 113.538C132.434 112.075 126.391 112.499 120.579 113.499C114.349 114.55 108.225 116.15 102.277 118.281C103.254 116.975 103.18 115.181 103.372 113.615C103.776 110.797 103.968 107.953 103.948 105.107C103.944 105.008 103.901 104.915 103.829 104.847C103.758 104.778 103.663 104.74 103.564 104.74C103.465 104.74 103.37 104.778 103.298 104.847C103.226 104.915 103.184 105.008 103.179 105.107C103.128 108.442 102.884 111.771 102.448 115.078C102.451 115.871 102.294 116.656 101.986 117.388C101.023 119.196 98.9057 119.467 97.0585 119.62C92.3269 119.939 87.5775 119.888 82.8538 119.467C82.8153 119.467 80.9288 119.427 80.9288 119.467C80.5788 119.196 80.5053 117.388 80.4283 116.964C79.6968 113.384 78.9277 109.804 78.4657 106.146C78.3887 105.877 77.8531 105.838 77.8882 106.223C78.4035 110.572 79.2724 114.886 80.1562 119.131C70.6869 115.991 60.5308 114.714 50.6337 113.807C46.284 113.384 41.5109 112.729 37.3529 114.539C36.273 114.959 35.2866 115.589 34.4502 116.392C33.6138 117.194 32.9437 118.153 32.4784 119.215C32.0131 120.277 31.7616 121.419 31.7383 122.578C31.715 123.737 31.9204 124.889 32.3427 125.969C31.0442 126.368 29.7706 126.845 28.5285 127.395C28.5092 127.337 28.4747 127.285 28.4286 127.244C28.3824 127.204 28.3263 127.176 28.266 127.165C27.2314 126.808 26.2161 126.396 25.2245 125.933C24.955 125.779 24.6855 126.241 24.9165 126.472C25.7091 127.102 26.6242 127.56 27.6036 127.818C26.6254 128.285 25.6611 128.799 24.7214 129.358C23.3371 129.166 21.9905 128.819 20.6089 128.551C20.5308 128.535 20.4497 128.549 20.3811 128.59C20.3126 128.63 20.2615 128.695 20.2376 128.771C20.2137 128.847 20.2188 128.929 20.2518 129.001C20.2848 129.074 20.3434 129.131 20.4164 129.163C21.4647 129.575 22.5592 129.858 23.6758 130.007C22.1986 130.956 20.8031 132.027 19.5038 133.208C18.2169 132.973 16.9128 132.843 15.6048 132.821C15.2548 132.782 15.1401 133.369 15.5278 133.475C16.5814 133.716 17.6526 133.872 18.7311 133.942C17.4882 135.144 16.3857 136.483 15.4446 137.934C14.2669 137.779 13.1259 137.516 11.9446 137.401C11.5596 137.325 11.522 137.902 11.8676 138.056C12.8832 138.396 13.9362 138.612 15.0036 138.7C14.4621 139.715 14.0718 140.804 13.8451 141.932C13.7121 141.932 14.042 141.932 10.136 142.632C10.0581 142.652 9.99004 142.7 9.94452 142.766C9.89901 142.832 9.87911 142.913 9.88851 142.993C9.89791 143.073 9.93598 143.147 9.99566 143.201C10.0553 143.255 10.1326 143.285 10.213 143.287C11.3974 143.242 12.5723 143.058 13.713 142.736C13.5503 144.079 13.6453 145.44 13.993 146.747C12.7242 146.713 11.4555 146.818 10.2095 147.06C9.90152 147.098 9.97852 147.599 10.2865 147.637C11.0051 147.663 11.7245 147.65 12.4416 147.599C13.033 147.603 13.6235 147.554 14.2056 147.45C14.5969 148.59 15.1627 149.662 15.883 150.628C14.7375 150.896 13.6131 151.246 12.5186 151.678C12.1686 151.832 12.2876 152.371 12.6726 152.255C13.9255 152.002 15.1595 151.663 16.366 151.24C16.9192 151.898 17.5323 152.502 18.1974 153.046C17.2795 153.847 16.3048 154.642 15.3291 155.373C15.0211 155.605 15.2906 156.143 15.6371 155.913C16.7514 155.194 17.8118 154.396 18.8099 153.523C19.6128 154.113 20.4613 154.638 21.3474 155.093C20.2607 155.958 19.331 157.003 18.599 158.184C18.368 158.569 18.949 158.877 19.1765 158.534C19.9584 157.357 20.9207 156.312 22.0281 155.435C22.701 155.755 23.3888 156.048 24.087 156.31C23.5969 157.333 23.2032 158.399 22.911 159.494C22.7955 159.879 23.2951 160.107 23.4491 159.764C23.9587 158.726 24.3797 157.648 24.7074 156.539C25.564 156.848 26.4329 157.126 27.3018 157.384C27.0777 157.759 26.9327 158.176 26.8756 158.609C26.7216 159.221 26.5676 159.802 26.4522 160.418C26.3752 160.879 26.9911 161.031 27.1066 160.649C27.3544 159.615 27.6575 158.594 28.0149 157.592C28.9908 157.868 29.9705 158.135 30.954 158.392C30.779 158.786 30.6697 159.227 30.5323 159.61C30.3275 160.182 30.1823 160.803 30.0318 161.381C29.9933 161.726 30.5323 161.88 30.6443 161.534C31.0484 160.571 31.3958 159.585 31.6846 158.581C32.6646 158.832 33.6473 159.074 34.6325 159.307C34.5039 159.882 34.3989 160.454 34.2633 160.996C34.1093 161.649 33.8783 162.265 33.7628 162.921C33.7535 162.987 33.7674 163.055 33.8022 163.113C33.8371 163.17 33.8906 163.214 33.9539 163.236C34.0172 163.259 34.0864 163.259 34.1497 163.237C34.2131 163.214 34.2668 163.171 34.3018 163.113C34.8909 161.983 35.2459 160.746 35.3456 159.476C36.6873 159.789 38.029 160.091 39.3706 160.382C38.9485 161.684 38.5925 163.007 38.304 164.345C38.2915 164.419 38.307 164.495 38.3474 164.558C38.3879 164.621 38.4503 164.666 38.5226 164.685C38.5949 164.705 38.6717 164.696 38.7381 164.662C38.8045 164.627 38.8557 164.569 38.8815 164.499C39.319 163.187 39.7206 161.874 40.0567 160.53C40.0567 160.53 41.713 160.885 42.5346 161.055C42.1031 162.044 41.8067 163.086 41.6535 164.154C41.6409 164.204 41.6383 164.257 41.646 164.308C41.6536 164.36 41.6713 164.409 41.6981 164.454C41.7249 164.498 41.7602 164.537 41.802 164.568C41.8438 164.599 41.8913 164.622 41.9418 164.634C41.9923 164.647 42.0448 164.65 42.0963 164.642C42.1478 164.634 42.1973 164.617 42.242 164.59C42.2866 164.563 42.3255 164.528 42.3565 164.486C42.3876 164.444 42.41 164.397 42.4227 164.346C42.6576 163.286 42.9497 162.24 43.2977 161.211C44.406 161.436 45.5143 161.653 46.6227 161.862C46.1921 162.954 45.8203 164.068 45.5088 165.2C45.3548 165.701 46.0863 165.893 46.2788 165.393C46.7101 164.287 47.0742 163.156 47.369 162.006C48.629 162.24 49.8902 162.463 51.1525 162.678C50.7455 163.75 50.4159 164.85 50.1664 165.97C50.1409 166.067 50.1549 166.17 50.2055 166.257C50.256 166.344 50.3389 166.407 50.4359 166.432C50.5329 166.458 50.6361 166.444 50.7227 166.393C50.8094 166.343 50.8724 166.26 50.8979 166.163C51.2985 165.066 51.6104 163.939 51.8307 162.792C53.0522 162.996 54.2751 163.191 55.4995 163.377C54.9243 164.665 54.4915 166.012 54.2089 167.394C54.1704 167.779 54.67 168.049 54.8625 167.664C55.4626 166.325 55.9074 164.921 56.1881 163.481C57.2965 163.646 58.4048 163.805 59.5131 163.956C59.1527 165.089 58.8973 166.253 58.7501 167.432C58.7117 167.856 59.3276 167.856 59.4431 167.509C59.811 166.384 60.0692 165.225 60.214 164.05C61.2745 164.192 62.3347 164.327 63.3946 164.456C63.0514 165.742 62.7731 167.044 62.5608 168.357C62.4838 168.78 63.0998 168.97 63.2153 168.549C63.57 167.228 63.8533 165.888 64.064 164.537C64.3073 164.566 66.164 164.773 66.8527 164.845C66.6177 165.576 66.4442 166.326 66.3338 167.086C66.2568 167.471 66.7949 167.74 66.9883 167.356C67.3355 166.587 67.5497 165.764 67.6218 164.924C68.7009 165.032 69.7801 165.133 70.8593 165.227C70.448 166.413 70.1819 167.645 70.0665 168.895C70.028 169.319 70.679 169.396 70.798 169.011C71.1262 167.809 71.3852 166.536 71.6398 165.295C72.5311 165.369 73.4227 165.439 74.3147 165.504C74.3121 166.226 74.1903 166.943 73.9541 167.626C73.9324 167.709 73.9417 167.798 73.9804 167.875C74.019 167.952 74.0843 168.013 74.1641 168.046C74.244 168.078 74.3331 168.081 74.4148 168.053C74.4965 168.026 74.5654 167.969 74.6087 167.894C74.9619 167.168 75.1147 166.361 75.0514 165.556C75.885 165.615 76.7189 165.668 77.553 165.717C77.2645 166.802 76.8981 167.864 76.4566 168.895C76.4313 168.944 76.4164 168.998 76.4128 169.052C76.4092 169.107 76.4169 169.162 76.4356 169.214C76.4543 169.266 76.4835 169.313 76.5213 169.353C76.5592 169.393 76.6049 169.424 76.6555 169.446C76.7062 169.467 76.7607 169.477 76.8157 169.477C76.8707 169.476 76.9249 169.464 76.9749 169.441C77.0249 169.418 77.0697 169.385 77.1064 169.344C77.1431 169.304 77.1709 169.255 77.1881 169.203C77.6853 168.101 78.0572 166.946 78.2968 165.76C79.2476 165.814 80.199 165.862 81.151 165.904C80.8972 167.22 80.7688 168.557 80.7678 169.896C80.7678 170.246 81.3803 170.357 81.4223 169.973C81.585 168.612 81.6892 167.261 81.8729 165.935C83.0046 165.982 84.1359 166.021 85.267 166.051C85.2364 167.12 85.0614 168.216 85.0798 169.28C85.0853 169.353 85.1157 169.421 85.1657 169.474C85.2158 169.526 85.2825 169.56 85.3546 169.569C85.4266 169.578 85.4996 169.562 85.5612 169.523C85.6227 169.485 85.669 169.426 85.6923 169.357C85.9133 168.276 86.004 167.173 85.9626 166.07C87.351 166.103 88.7396 166.125 90.1285 166.136C89.866 167.055 89.5265 167.973 89.3498 168.895C89.2728 169.28 89.8118 169.55 90.0043 169.165C90.4217 168.194 90.7276 167.179 90.916 166.139C91.8669 166.143 92.8183 166.14 93.7703 166.133C93.5573 167.093 93.4178 168.068 93.3529 169.049C93.351 169.137 93.3818 169.222 93.4394 169.288C93.4971 169.353 93.5772 169.395 93.6642 169.405C93.7511 169.415 93.8385 169.391 93.9092 169.34C93.9798 169.288 94.0286 169.212 94.0459 169.126C94.2463 168.135 94.381 167.114 94.4904 166.126C95.2184 166.118 95.9476 166.107 96.6779 166.091C96.4323 167.247 96.2486 168.415 96.1275 169.591C96.096 169.977 96.705 170.053 96.8205 169.668C97.1085 168.487 97.3198 167.289 97.4532 166.08C98.6012 166.053 99.7494 166.017 100.898 165.974C100.818 167.387 100.516 168.837 100.516 170.249C100.516 170.634 101.128 170.749 101.209 170.326C101.484 168.881 101.625 167.414 101.63 165.944C102.801 165.896 103.972 165.839 105.144 165.773C105.097 166.448 105.145 167.125 105.289 167.786C105.309 167.857 105.355 167.919 105.417 167.96C105.479 168.001 105.554 168.019 105.628 168.01C105.701 168 105.77 167.965 105.82 167.91C105.87 167.855 105.899 167.784 105.901 167.71C105.918 167.048 105.939 166.389 105.915 165.729C106.706 165.681 107.497 165.63 108.287 165.575C108.398 167.15 108.375 168.717 108.519 170.288C108.526 170.381 108.567 170.468 108.635 170.531C108.703 170.594 108.792 170.63 108.885 170.63C108.978 170.63 109.067 170.594 109.135 170.531C109.203 170.468 109.244 170.381 109.251 170.288C109.346 168.695 109.256 167.097 108.982 165.525C109.979 165.452 110.975 165.373 111.97 165.288C111.999 166.047 112.067 166.804 112.176 167.556C112.253 167.94 112.788 167.824 112.83 167.478C112.868 166.724 112.818 165.968 112.683 165.225C113.815 165.125 114.945 165.016 116.074 164.899C116.059 166.376 116.223 167.85 116.564 169.287C116.68 169.672 117.286 169.596 117.257 169.21C117.149 167.74 116.913 166.299 116.72 164.831C117.751 164.72 118.784 164.6 119.822 164.471C119.842 165.327 120.003 166.174 120.299 166.978C120.414 167.286 120.953 167.286 120.911 166.901C120.855 166.052 120.734 165.209 120.549 164.378C121.301 164.282 122.053 164.178 122.805 164.069C123.586 165.266 124.157 166.588 124.491 167.978C124.606 168.479 125.376 168.286 125.261 167.747C124.977 166.378 124.404 165.085 123.582 163.954C124.69 163.786 125.795 163.603 126.897 163.405C127.536 164.531 128.095 165.7 128.571 166.905C128.725 167.255 129.218 166.983 129.148 166.674C128.853 165.454 128.328 164.302 127.603 163.278C128.741 163.064 129.874 162.831 131.002 162.578C131.59 163.828 132.184 165.075 132.883 166.253C132.923 166.308 132.981 166.347 133.046 166.365C133.112 166.383 133.182 166.378 133.244 166.351C133.307 166.325 133.358 166.277 133.39 166.218C133.423 166.158 133.434 166.089 133.422 166.022C132.985 164.761 132.413 163.551 131.716 162.413C132.743 162.172 133.764 161.909 134.778 161.626C135.277 162.517 135.826 163.38 136.423 164.21C136.446 164.248 136.476 164.281 136.512 164.307C136.548 164.333 136.588 164.352 136.631 164.363C136.674 164.373 136.719 164.375 136.763 164.368C136.807 164.362 136.849 164.346 136.887 164.323C136.925 164.3 136.958 164.27 136.984 164.234C137.01 164.199 137.029 164.158 137.04 164.115C137.05 164.072 137.052 164.027 137.046 163.983C137.039 163.94 137.024 163.898 137.001 163.86C136.59 162.99 136.076 162.173 135.471 161.425C136.567 161.109 137.653 160.764 138.73 160.393C139.121 161.416 139.455 162.498 139.927 163.513C140.081 163.898 140.619 163.59 140.539 163.244C140.287 162.171 139.883 161.14 139.339 160.181C140.227 159.864 141.105 159.525 141.974 159.165C142.411 160.177 143.005 161.112 143.734 161.938C143.788 161.993 143.861 162.025 143.938 162.03C144.015 162.035 144.091 162.012 144.153 161.965C144.214 161.918 144.256 161.85 144.271 161.774C144.286 161.699 144.273 161.62 144.234 161.553C143.751 160.656 143.144 159.789 142.608 158.898C143.632 158.459 144.641 157.986 145.635 157.481C145.947 158.48 146.496 159.389 147.237 160.13C147.299 160.181 147.376 160.21 147.456 160.211C147.537 160.212 147.615 160.185 147.678 160.136C147.741 160.086 147.785 160.016 147.803 159.938C147.82 159.86 147.811 159.778 147.775 159.706C147.216 158.89 146.729 158.026 146.321 157.125C147.321 156.595 148.302 156.028 149.264 155.424C149.953 156.302 150.746 157.094 151.626 157.781C151.934 158.012 152.204 157.55 151.976 157.319C151.308 156.517 150.523 155.832 149.798 155.084C150.934 154.345 152.038 153.548 153.109 152.693C153.703 153.356 154.432 153.883 155.248 154.24C155.598 154.394 155.748 153.855 155.479 153.701C154.823 153.275 154.198 152.802 153.611 152.286C154.684 151.398 155.705 150.449 156.283 149.859C157.022 150.701 158.007 151.29 159.098 151.545C159.184 151.567 159.275 151.556 159.352 151.512C159.43 151.468 159.487 151.396 159.512 151.311C159.537 151.226 159.528 151.134 159.487 151.056C159.445 150.977 159.375 150.918 159.29 150.89C158.324 150.614 157.447 150.089 156.747 149.368C157.312 148.747 157.836 148.088 158.314 147.397C159.041 147.953 159.851 148.391 160.714 148.697C161.064 148.811 161.253 148.273 160.945 148.118C160.182 147.72 159.418 147.322 158.679 146.85C159.071 146.239 159.426 145.606 159.743 144.953C160.992 145.484 162.28 146.048 163.601 146.464C163.951 146.579 164.179 146.04 163.871 145.851C162.621 145.27 161.337 144.765 160.026 144.34C160.231 143.871 160.414 143.393 160.573 142.91C161.924 142.885 163.273 142.993 164.602 143.234C164.673 143.23 164.74 143.204 164.795 143.159C164.849 143.114 164.888 143.053 164.905 142.985C164.922 142.916 164.917 142.844 164.89 142.779C164.863 142.713 164.817 142.658 164.756 142.622C163.494 142.144 162.131 141.993 160.794 142.184C161.087 141.134 161.253 140.052 161.29 138.962C162.415 139.367 163.609 139.544 164.804 139.483ZM36.0771 116.348C39.8886 113.692 44.8543 114.231 49.2424 114.616C59.8117 115.471 70.2846 117.261 80.5385 119.963C84.7839 120.402 89.0511 120.595 93.3188 120.54C95.4783 120.482 98.4568 120.694 100.594 119.643C110.399 116.604 120.933 113.073 131.352 113.573C136.048 113.804 149.829 116.11 144.94 123.548C142.284 127.551 137.472 130.092 133.238 132.016C124.194 136.15 113.288 137.722 112.221 138.201C111.22 138.119 110.214 138.159 109.223 138.318C104.541 134.725 98.7228 132.33 93.0353 130.361C100.858 127.093 105.617 124.073 121.88 121.045C122.303 120.968 122.112 120.361 121.726 120.433C115.977 121.348 110.303 122.686 104.751 124.436C100.412 125.907 95.7049 127.565 91.7132 129.912C80.6807 126.123 69.2671 123.551 57.6757 122.242C57.2907 122.204 57.2889 122.868 57.7141 122.934C73.7363 125.457 94.8736 129.876 108.336 138.947C108.199 139.113 108.081 139.294 107.986 139.486C107.162 140.636 106.778 142.042 106.903 143.45C95.6025 141.853 82.1013 140.738 70.6073 140.103C60.872 139.49 55.8793 140.074 44.2768 134.906C40.5817 133.289 36.7316 131.441 34.4225 128.015C31.843 124.201 32.1125 119.12 36.0771 116.348ZM55.748 144.487C56.165 144.838 56.6718 145.064 57.211 145.142C64.7198 146.914 72.6251 145.645 79.2015 141.611C104.653 143.454 107.476 145.024 108.14 144.499C111.682 146.011 115.374 146.629 119.033 147.411C122.998 148.258 127.346 148.566 130.928 146.603C131.386 146.382 131.783 146.051 132.083 145.64C132.302 145.235 132.397 144.775 132.356 144.316C132.315 143.857 132.139 143.421 131.852 143.061C131.251 142.365 130.501 141.812 129.658 141.445C125.567 139.432 120.96 138.878 116.398 138.503C124.026 137.006 131.383 134.362 138.219 130.662C143.226 134.418 143.907 137.898 141.706 142.754C139.81 146.579 136.752 149.705 132.969 151.684C124.846 156.226 115.3 156.573 106.215 156.765C86.4282 157.189 66.3347 157.612 47.0103 152.801C42.1217 151.569 36.3852 150.221 33.691 145.486C33.016 144.376 32.5998 143.129 32.4731 141.836C32.3465 140.543 32.5127 139.238 32.9595 138.018C33.9133 135.578 35.9249 134.081 38.0214 132.669C42.2371 135.502 50.3414 138.52 55.2764 139.634C54.8604 140.398 54.683 141.268 54.7671 142.133C54.8512 142.998 55.1929 143.818 55.748 144.487ZM155.68 149.26C151.407 153.572 145.479 156.96 139.859 159.154C133.2 161.733 126.078 162.888 118.995 163.696C88.8292 167.2 58.2723 164.927 28.9573 156.998C24.9918 155.921 20.8731 154.612 17.8316 151.686C14.9441 148.953 13.405 145.026 14.637 141.139C14.9155 140.288 15.2824 139.469 15.7316 138.695C15.77 138.667 15.8021 138.632 15.8259 138.592C15.8497 138.551 15.8647 138.506 15.8699 138.459C19.0103 133.225 26.5186 128.397 32.522 126.456C33.6033 128.868 35.356 130.917 37.5708 132.359C34.4768 134.338 31.8028 136.851 31.6899 140.792C31.5744 144.988 34.4234 148.567 37.926 150.531C42.5075 153.068 48.1635 153.995 53.2858 154.993C70.0753 158.259 87.9261 158.009 105.173 157.611C115.105 157.38 125.768 157.188 134.507 151.722C138.471 149.258 141.936 145.524 143.206 140.905C143.869 139.027 143.814 136.97 143.052 135.13C142.082 133.197 140.664 131.523 138.916 130.249C141.562 128.747 143.863 126.704 145.667 124.255C150.96 125.962 157.014 128.764 159.492 134.055C161.916 139.252 159.492 145.45 155.68 149.26Z" fill="#191919"/>
</g>
</g>
</svg>
