<svg width="167" height="135" viewBox="0 0 167 135" fill="none" xmlns="http://www.w3.org/2000/svg">
<g id="Group">
<path id="Vector" d="M41.3705 53.2007C36.8695 56.7384 37.0121 48.1047 39.12 48.8607C39.5986 49.0357 41.3469 50.7857 41.6925 49.664C41.843 49.1784 40.5672 43.714 40.0851 42.5905C43.5448 39.93 46.1218 36.2881 47.4797 32.1404C47.4797 31.6582 46.1944 32.3014 46.1944 32.3014C46.457 31.6375 46.5667 30.923 46.5155 30.211C46.4874 30.1737 46.4509 30.1434 46.4091 30.1225C46.3673 30.1017 46.3212 30.0908 46.2744 30.0908C46.2277 30.0908 46.1816 30.1017 46.1398 30.1225C46.0979 30.1434 46.0615 30.1737 46.0334 30.211C45.2292 31.8192 43.3007 32.136 41.6925 32.3014C39.7675 32.3014 33.0107 31.3389 30.5992 32.4624C29.474 32.9445 28.1877 34.5519 28.6742 37.4499C28.6742 37.7719 29.1564 39.7012 29.4775 39.8614C30.7217 39.8567 31.944 40.1893 33.0142 40.8239C33.1752 40.984 33.0142 41.145 32.8541 41.145C32.211 41.145 31.728 40.984 31.2459 40.984C28.9954 40.8239 25.7797 40.8239 25.4586 43.7175C25.1366 45.968 25.9407 48.2194 26.7449 50.1487C27.7074 52.5594 33.0142 60.4379 33.6574 60.759C33.8826 60.7635 34.107 60.7322 34.3224 60.6662C34.4895 62.3585 34.7966 64.0437 35.1046 65.582C35.2647 66.5445 36.2299 66.7072 36.0671 65.582C35.6095 63.9037 35.2962 62.2255 34.8535 60.5472C37.1434 60.0117 41.9952 58.6415 42.9805 58.0264C43.3007 57.8636 41.85 52.7186 41.3705 53.2007ZM43.1397 34.7129C43.2227 34.7195 43.3006 34.7554 43.3595 34.8143C43.4183 34.8731 43.4543 34.951 43.4609 35.034C43.4609 36.0254 40.3686 36.609 40.2452 36.6422C40.0851 36.6422 39.9241 36.3202 40.0851 36.3202C40.2636 36.1409 42.6987 34.5659 43.1397 34.7129ZM34.9375 54.648C34.938 54.6693 34.9341 54.6904 34.9262 54.7102C34.9183 54.7299 34.9065 54.7478 34.8914 54.7629C34.8764 54.7779 34.8584 54.7898 34.8387 54.7977C34.8189 54.8056 34.7978 54.8095 34.7765 54.809C34.2944 54.97 33.814 54.487 33.6512 54.1659C33.3069 53.7552 32.9855 53.3258 32.6887 52.8796C32.7611 54.1639 33.0882 55.4208 33.6512 56.5774C33.6958 56.6846 33.7044 56.8034 33.6756 56.9159C33.6467 57.0284 33.5821 57.1284 33.4915 57.201C33.4008 57.2736 33.2891 57.3147 33.173 57.3183C33.0569 57.3218 32.9429 57.2875 32.848 57.2205C31.7554 56.0729 30.8346 54.7732 30.1145 53.3617C29.3427 51.8979 28.5071 50.4681 28.6681 48.6997C28.6681 48.5387 28.9892 48.3777 28.9892 48.6997C29.3652 50.2007 30.018 51.6183 30.9142 52.8796C31.2344 53.5046 31.6148 54.0969 32.05 54.648C31.7519 53.6024 31.6968 52.5025 31.889 51.4324C31.8928 51.3378 31.9283 51.2473 31.9898 51.1754C32.0513 51.1034 32.1352 51.0543 32.228 51.0358C32.3208 51.0173 32.4172 51.0306 32.5015 51.0735C32.5859 51.1164 32.6534 51.1864 32.6931 51.2722C33.4211 52.7361 35.1501 53.808 34.9375 54.648ZM31.5644 34.3909C31.3981 34.4696 31.2599 34.3672 31.4034 34.2307C32 33.7361 32.6982 33.3788 33.4484 33.1844C34.1986 32.9899 34.9825 32.963 35.7442 33.1055C37.021 33.3039 38.3102 33.4112 39.6021 33.4266C39.6896 33.4266 41.9786 33.1405 41.0494 34.0697C39.9591 34.887 37.517 34.4889 36.2264 34.2307C34.6952 33.7843 33.0613 33.8404 31.5644 34.3909Z" fill="#111111"/>
<path id="Vector_2" d="M49.8921 49.6635C50.3004 49.3361 50.6285 48.9197 50.8512 48.4461C51.074 47.9725 51.1856 47.4542 51.1775 46.9309C51.1775 44.7697 49.4275 43.4195 47.9627 41.6249C47.1682 40.6528 46.1943 39.8565 45.2292 38.8923C45.0682 38.7313 44.7471 38.8923 44.9081 39.2134C45.5512 40.0175 46.1943 40.9827 46.8331 41.7859C48.7248 44.1484 49.8081 45.2859 50.0478 46.6089C50.0576 47.4564 49.8351 48.2903 49.4047 49.0204C49.3647 48.7786 49.2528 48.5545 49.0836 48.3773C48.9226 48.2172 48.7082 48.2285 48.7616 48.5383C49.1825 50.9612 49.7241 53.6833 48.9226 56.2549C48.6883 57.1483 48.2478 57.9742 47.6363 58.6664C46.9932 59.4705 46.029 59.7925 45.2248 60.4357C45.0638 60.5958 45.0639 60.9178 45.3859 60.9178C46.5111 61.0779 47.4753 60.2747 48.2795 59.6315C49.0751 58.8081 49.6803 57.82 50.0522 56.737C50.7247 54.4185 50.6688 51.9493 49.8921 49.6635Z" fill="#111111"/>
<path id="Vector_3" d="M76.5793 66.384C79.2716 65.614 80.9315 64.529 86.2252 61.8822C88.2465 61.2084 89.2081 60.8085 90.0831 58.9885C97.4996 43.5544 98.4341 33.4543 99.2496 31.0122C99.4351 30.0601 99.5419 29.0943 99.569 28.1247C99.569 27.6417 98.9259 27.6417 98.7649 27.9637C98.3518 29.6601 98.0305 31.3776 97.8024 33.1087C96.2845 40.6033 94.0225 47.9278 91.05 54.9732C90.2625 56.7494 89.7637 59.3132 87.9954 60.2783C86.2295 61.2503 84.4038 62.1095 82.5292 62.8508C80.5824 63.7792 78.6705 64.9403 76.5793 65.9054C76.0963 66.062 76.2573 66.384 76.5793 66.384Z" fill="#111111"/>
<path id="Vector_4" d="M98.4445 25.5487C97.482 24.7446 96.5055 24.1146 95.3898 23.2983C94.7462 22.9508 94.1948 22.4546 93.7816 21.851C93.5834 21.48 93.4797 21.0659 93.4797 20.6452C93.4797 20.2246 93.5834 19.8105 93.7816 19.4395C94.0889 18.5539 94.4651 17.6938 94.9068 16.867C95.2288 16.0637 95.711 15.2596 96.033 14.4555C96.1931 14.1344 95.711 13.8124 95.3898 14.1344C94.8144 14.8786 94.3286 15.688 93.9426 16.5459C93.2995 17.9922 92.3011 19.765 92.4953 21.3689C92.6126 21.9108 92.8453 22.421 93.1774 22.865C93.5096 23.3089 93.9335 23.676 94.4203 23.9414C95.5578 24.7289 96.8318 25.5487 97.9571 26.1919C98.4445 26.1919 98.7656 25.8699 98.4445 25.5487Z" fill="#111111"/>
<path id="Vector_5" d="M96.9969 17.5096C97.5263 14.5985 97.6567 11.3023 97.9594 9.47096C98.1204 8.50846 98.1204 7.54596 98.2814 6.57734C98.4424 5.93421 98.6026 6.73834 98.7636 6.89934C98.9246 7.54246 99.2404 8.18646 99.4067 8.98884C99.8739 11.2428 100.05 13.6517 100.369 15.9013C100.38 16.0007 100.426 16.0928 100.501 16.1597C100.575 16.2266 100.671 16.2636 100.771 16.2636C100.871 16.2636 100.968 16.2266 101.042 16.1597C101.116 16.0928 101.163 16.0007 101.173 15.9013C101.286 12.5585 100.74 9.22614 99.5659 6.09434C99.5124 5.83148 99.3726 5.59402 99.1688 5.41965C98.9649 5.24528 98.7087 5.14399 98.4407 5.13184C97.3154 5.13184 97.4782 7.05684 97.3154 7.70346C96.9898 10.8549 96.8286 14.0211 96.8324 17.1893C96.5148 17.6706 96.8359 17.6706 96.9969 17.5096Z" fill="#111111"/>
<path id="Vector_6" d="M105.517 12.526C106.147 13.077 106.596 13.8058 106.804 14.6164C106.965 15.4122 106.965 16.2322 106.804 17.0279C106.723 17.1466 106.68 17.2867 106.68 17.43C106.68 17.5733 106.723 17.7133 106.804 17.832C106.965 17.9922 107.125 17.8321 107.286 17.6711C107.916 17.0411 107.828 15.3409 107.608 14.4554C107.476 13.9396 107.235 13.4577 106.903 13.0419C106.57 12.6261 106.153 12.2859 105.678 12.0439C105.449 11.9626 105.356 12.3659 105.517 12.526Z" fill="#111111"/>
<path id="Vector_7" d="M109.215 24.7439C109.749 23.6217 110.128 22.4318 110.34 21.2072C110.632 19.1133 110.662 16.3842 109.215 14.6158C109.054 14.2938 108.572 14.6158 108.733 14.9369C109.535 16.8714 109.703 19.01 109.215 21.0462C108.893 22.9712 107.727 24.5654 106.964 26.3522C106.624 27.1484 107.774 35.9973 108.09 40.4992C108.417 45.1612 108.411 49.8241 108.411 54.4861C108.411 58.9879 108.095 63.4898 107.768 68.1518C107.639 70.384 107.262 72.5949 106.642 74.7432C106.099 76.3449 105.159 77.7828 103.91 78.9231C102.33 80.5412 100.547 81.9464 98.6038 83.103C97.4821 83.7513 96.5143 84.3892 95.3891 85.0279C94.2585 85.63 93.1826 86.3295 92.1734 87.1183C91.8514 87.2785 92.1734 87.7615 92.4946 87.6004C94.6599 86.8635 96.715 85.8359 98.6038 84.5458C100.369 83.4577 102.037 82.2206 103.591 80.8481C104.92 79.6935 106.06 78.3373 106.968 76.8292C107.894 74.916 108.44 72.8412 108.575 70.7199C110.333 57.9729 109.596 39.8622 107.613 27.1511C108.411 26.8343 109.054 25.2261 109.215 24.7439Z" fill="#111111"/>
<path id="Vector_8" d="M4.07275 112.685C3.84525 116.098 1.9885 124.621 1.17913 127.958C0.456375 130.937 0.375 130.762 0.375 131.495C0.375 131.816 0.696125 131.977 1.01813 131.655C1.60524 130.787 1.98979 129.799 2.14338 128.762C2.6115 126.63 4.71588 116.046 4.71588 112.685C4.55488 112.202 4.07275 112.202 4.07275 112.685Z" fill="#111111"/>
<path id="Vector_9" d="M101.498 11.4008C101.819 11.8829 102.302 12.2049 102.461 12.687C102.92 13.6952 103.14 14.7956 103.104 15.9026C103.104 17.02 104.361 15.9901 103.908 13.9776C103.747 13.1689 103.419 12.4026 102.946 11.7271C102.589 11.3196 102.151 10.9916 101.659 10.7646C101.498 10.9186 101.337 11.2371 101.498 11.4008Z" fill="#111111"/>
<path id="Vector_10" d="M59.3772 102.717C59.0552 102.878 58.8924 102.392 59.2162 102.235C61.6128 101.076 91.5308 90.1775 91.8537 90.0165C90.5683 86.6398 80.9214 61.5606 80.6003 60.2743C80.5714 60.1982 80.5271 60.1288 80.4701 60.0707C80.413 60.0126 80.3446 59.9669 80.269 59.9367C80.1934 59.9064 80.1123 59.8922 80.0309 59.8949C79.9495 59.8975 79.8696 59.9171 79.7962 59.9523C76.2594 62.3638 54.877 69.9203 54.3949 70.0813C49.088 64.4542 33.0125 63.6492 26.2584 66.7047C26.1548 66.7356 26.0639 66.7992 25.9994 66.8859C25.9348 66.9726 25.8999 67.0778 25.8999 67.1859C25.8999 67.2941 25.9348 67.3993 25.9994 67.486C26.0639 67.5727 26.1548 67.6363 26.2584 67.6672C27.8544 68.1607 28.9359 70.3438 29.1529 70.5608C23.3648 72.4858 18.008 75.6664 14.3654 80.5279C9.67366 86.7859 9.2029 90.8302 1.82578 114.611C1.81497 114.698 1.82373 114.787 1.85143 114.87C1.87912 114.954 1.92506 115.03 1.9859 115.094C5.52353 115.737 9.22041 115.897 12.758 116.54C12.478 108.713 12.618 99.8514 14.683 92.2643C15.5186 88.7846 16.8163 85.4324 18.5418 82.2972C18.7028 82.1362 19.0239 82.2972 18.8638 82.4573C17.9293 84.349 17.2274 86.3469 16.7734 88.4073C12.919 99.9696 14.2683 116.402 14.5229 128.599C14.5597 130.367 14.683 132.136 14.844 133.905C16.613 134.456 18.4574 134.727 20.3102 134.708C21.9184 134.708 32.3642 134.02 36.0654 133.745C43.7759 133.17 66.6117 132.138 70.4704 132.459C70.5956 132.451 70.7136 132.398 70.8024 132.309C70.8911 132.22 70.9445 132.102 70.9525 131.977C71.033 127.795 72.7209 101.11 72.7209 99.3396C68.2058 100.181 63.7489 101.309 59.3772 102.717ZM47.8 86.8008C48.4028 90.1489 49.6013 93.3618 51.3385 96.2867C51.4015 96.3412 51.4489 96.4114 51.4759 96.4902C51.5029 96.569 51.5085 96.6536 51.4921 96.7353C51.4758 96.8169 51.438 96.8928 51.3827 96.9551C51.3275 97.0174 51.2567 97.0639 51.1775 97.0899C50.8564 97.0899 50.5344 96.4468 50.3743 96.2867C49.7312 95.3242 49.088 94.1963 48.4449 93.0711C47.4771 90.7584 46.8295 88.3244 46.5199 85.8366C45.9284 81.1194 47.5699 76.4321 49.4135 74.2612C49.5605 74.0862 51.6649 72.1708 51.5039 72.8139C51.3429 73.2961 50.6849 73.7642 50.3787 74.1002C49.6028 75.0585 49.004 76.1474 48.6103 77.3158C47.5131 80.3517 47.2337 83.6228 47.8 86.8008ZM42.8125 69.9203C43.8477 70.0101 44.817 70.4662 45.546 71.2066C45.5763 71.2465 45.5963 71.2932 45.6044 71.3426C45.6125 71.392 45.6085 71.4426 45.5926 71.4901C45.5768 71.5376 45.5496 71.5805 45.5134 71.6151C45.4772 71.6497 45.4332 71.675 45.385 71.6887C42.9429 71.6887 43.2107 70.4025 33.0055 70.4025C32.6844 70.4025 32.8454 70.0813 33.0055 70.0813C35.2473 69.9089 40.513 69.5362 42.8178 69.9203H42.8125Z" fill="#50C85A"/>
<path id="Vector_11" d="M112.591 0.46847C109.012 0.46847 89.3575 0.13072 86.2259 0.46847C84.4602 0.65922 82.5282 0.950596 81.2384 2.39347C80.5263 3.14221 80.0751 4.101 79.9522 5.12697C79.7842 7.21339 79.7842 9.30993 79.9522 11.3963C80.1009 13.1665 80.0922 14.9541 81.5595 16.3838C84.4147 19.1576 89.2744 17.7506 92.8138 17.8311C92.8778 17.8311 92.9393 17.8057 92.9846 17.7604C93.0299 17.7151 93.0553 17.6536 93.0553 17.5896C93.0553 17.5255 93.0299 17.4641 92.9846 17.4188C92.9393 17.3735 92.8778 17.3481 92.8138 17.3481C91.3665 17.3481 89.7592 17.188 88.3119 17.188C85.4752 17.188 82.8099 17.1153 81.5595 14.6155C80.7563 13.0081 80.9164 10.9177 80.9164 9.14935C80.9164 7.54197 80.7563 5.2906 81.5595 3.84422C82.3628 2.39785 84.1355 1.78797 85.7403 1.59285C87.929 1.35327 90.1301 1.24604 92.3317 1.27172C116.707 1.27172 118.225 1.20085 118.858 1.27172C119.665 1.41295 120.436 1.71309 121.126 2.1547C121.816 2.59632 122.411 3.17061 122.877 3.84422C123.815 5.44319 124.156 7.32279 123.84 9.14935C123.8 9.38735 123.617 13.0991 122.714 14.6155C121.319 16.9578 116.078 17.0322 114.839 17.188H111.945C111.785 17.188 111.142 17.188 111.302 17.5091H111.463C113.869 17.73 116.291 17.73 118.697 17.5091C120.305 17.3481 121.913 17.027 122.877 15.7407C123.84 14.6155 123.98 13.1656 124.163 11.7218C124.341 10.6042 124.449 9.47641 124.485 8.34522C124.566 7.3286 124.566 6.30721 124.485 5.2906C124.276 4.40567 123.882 3.57532 123.327 2.85466C122.773 2.134 122.071 1.53953 121.27 1.11072C120.501 0.725722 117.958 0.46847 112.591 0.46847Z" fill="#111111"/>
<path id="Vector_12" d="M139.922 51.2721C143.449 51.6066 146.997 51.6602 150.533 51.4322C151.846 51.4397 153.152 51.2222 154.392 50.7891C155.041 50.5223 155.632 50.1291 156.129 49.6324C156.625 49.1356 157.018 48.5453 157.285 47.8955C157.545 47.064 157.654 46.1928 157.606 45.323C157.606 43.3883 157.652 43.048 157.446 42.4293C157.446 42.2683 157.124 42.2683 157.124 42.4293C156.905 43.1585 156.85 43.927 156.963 44.6798C156.945 45.493 156.837 46.3017 156.642 47.0913C156.487 47.7256 156.189 48.316 155.771 48.8177C155.353 49.3193 154.826 49.7188 154.231 49.9858C153.03 50.3552 151.788 50.5713 150.533 50.629C149.247 50.629 147.799 50.7891 146.514 50.7891C144.424 50.7891 142.173 50.7891 140.083 50.9501C139.762 51.1111 139.762 51.2721 139.922 51.2721Z" fill="#111111"/>
<path id="Vector_13" d="M102.463 85.0327C108.444 85.1631 125.263 85.5699 128.989 85.1937C130.757 85.0187 132.546 84.9014 133.977 83.9074C135.772 82.6579 136.067 80.6918 136.067 78.7624C136.457 72.5263 136.534 68.1102 130.279 67.6701C127.068 67.4434 123.849 67.6701 120.472 67.6701C111.962 67.6701 112.51 67.8302 110.987 67.8302C110.923 67.8302 110.862 67.8556 110.816 67.9009C110.771 67.9462 110.746 68.0076 110.746 68.0717C110.746 68.1357 110.771 68.1972 110.816 68.2424C110.862 68.2877 110.923 68.3132 110.987 68.3132C111.63 68.3132 112.756 68.4602 113.56 68.4733C118.384 68.5538 123.205 68.1618 128.029 68.4733C130.6 68.6396 134.008 68.6247 134.941 71.6889C135.772 74.4137 135.581 78.1193 135.101 80.8528C134.454 84.5497 128.831 84.3598 125.937 84.3896C118.062 84.4701 110.343 84.2286 102.466 84.5506C102.302 84.7116 102.302 85.0292 102.463 85.0327Z" fill="#111111"/>
<path id="Vector_14" d="M161.143 72.0103C157.574 71.6542 137.956 71.9464 137.51 72.1713C137.189 72.3323 137.671 81.8173 137.993 81.8173C142.018 81.5294 161.356 81.364 162.912 81.014C164.852 80.5765 165.966 78.4415 165.966 76.5122C166.127 73.9397 163.556 72.3323 161.143 72.0103Z" fill="#50C85A"/>
<path id="Vector_15" d="M94.4244 38.5709C89.9383 38.1147 85.427 37.9533 80.9197 38.0879C78.6692 38.0879 76.4187 38.0879 74.1682 38.2489C73.0402 38.2222 71.9118 38.276 70.7916 38.4099C69.7171 38.3762 68.6417 38.4298 67.5759 38.57C66.6815 38.7748 65.8556 39.2086 65.1793 39.8288C64.5029 40.4489 63.9994 41.2342 63.7181 42.1077C63.0749 43.715 63.8834 45.4782 65.1644 46.6087C66.6139 47.777 68.4527 48.3518 70.3094 48.2169C78.4924 48.2169 83.8396 48.272 92.1739 47.7339C92.4951 47.7339 92.4951 47.0908 92.1739 47.2518C85.8035 47.6291 79.418 47.6829 73.0421 47.4128C71.2737 47.4128 69.1921 47.5493 67.4158 46.9307C65.9756 46.4284 64.3612 45.0057 64.3612 43.2329C64.4357 42.3998 64.7727 41.6118 65.3237 40.9824C65.8338 40.1715 66.6425 39.5938 67.5751 39.3742C69.5316 39.0487 71.5563 39.3794 73.8453 39.053C77.8047 39.053 70.8598 38.892 94.5828 38.892C94.5854 38.8045 94.5854 38.731 94.4244 38.5709Z" fill="#111111"/>
<path id="Vector_16" d="M164.038 5.13134C162.438 4.14959 160.5 4.32459 158.575 4.32459C127.324 4.32459 125.778 4.44621 125.778 5.12871C125.778 7.92226 125.617 10.7135 125.295 13.4885C125.234 13.5281 125.186 13.586 125.159 13.654C125.132 13.722 125.127 13.7968 125.145 13.8677C125.163 13.9387 125.203 14.0023 125.258 14.0497C125.314 14.097 125.383 14.1256 125.456 14.1316C134.477 14.647 145.829 14.1657 159.861 13.9706C161.308 13.9505 162.916 13.9706 164.201 13.0081C167.371 11.2458 167.547 7.28034 164.038 5.13134Z" fill="#50C85A"/>
<path id="Vector_17" d="M165.001 40.0172C163.555 38.5708 158.249 38.2488 158.249 38.8919C158.249 41.4644 158.249 47.4127 158.571 47.7338C159 48.0086 159.512 48.1226 160.017 48.0558C161.046 48.1007 162.075 47.9922 163.072 47.7338C163.879 47.5119 164.615 47.084 165.207 46.4922C165.798 45.9005 166.226 45.165 166.449 44.3581C166.544 43.5725 166.463 42.7756 166.213 42.0249C165.963 41.2742 165.549 40.5885 165.001 40.0172Z" fill="#50C85A"/>
<path id="Vector_18" d="M156.963 37.2849C154.338 33.3474 148.88 34.2303 145.228 34.2303C143.137 34.2303 140.887 34.2303 138.797 34.0693C125.435 34.0693 119.109 33.3815 116.45 34.7124C115.894 34.9001 115.381 35.1954 114.94 35.5816C114.498 35.9677 114.137 36.4371 113.877 36.9629C113.636 37.4122 113.468 37.8968 113.379 38.3988C111.177 38.3944 110.083 38.3454 109.859 38.5738V39.0559C110.079 39.2568 110.365 39.3709 110.663 39.377C112.232 39.377 112.902 39.4243 113.251 39.4295C113.197 40.2555 113.234 41.0798 113.234 41.792C113.107 43.7872 113.263 45.7903 113.696 47.742C110.976 47.742 110.756 47.6948 110.341 47.903L110.363 48.5461C110.45 48.6336 109.958 48.5461 113.995 48.5461C114.225 49.0901 114.56 49.5832 114.981 49.9971C115.403 50.411 115.902 50.7374 116.45 50.9576C118.186 51.536 119.296 51.4398 126.739 51.4398C133.078 51.4398 137.239 51.2648 138.153 51.2796C138.217 51.2796 138.279 51.2542 138.324 51.2089C138.369 51.1636 138.395 51.1022 138.395 51.0381C138.395 50.9741 138.369 50.9127 138.324 50.8674C138.279 50.8221 138.217 50.7966 138.153 50.7966C137.191 50.7966 136.064 50.6365 135.099 50.6365H125.132C122.398 50.6365 118.7 51.2796 116.289 49.9934C115.612 49.5722 115.061 48.9768 114.694 48.2696C114.326 47.5624 114.155 46.7694 114.199 45.9736C114.038 43.5621 113.717 40.3474 114.36 37.935C114.582 37.307 114.971 36.7514 115.486 36.3276C117.653 34.1603 122.34 34.7203 149.086 34.7203C151.176 34.7203 153.266 34.7203 154.874 35.8455C155.642 36.3699 156.246 37.1012 156.616 37.9548C156.986 38.8084 157.106 39.7493 156.963 40.6685C157.124 40.8295 157.124 40.8295 157.285 40.6685C157.516 40.1218 157.607 39.5266 157.55 38.9361C157.494 38.3456 157.292 37.7783 156.963 37.2849Z" fill="#111111"/>
<path id="Vector_19" d="M122.238 39.6966C120.925 43.6227 122.559 47.4447 122.559 45.9659C122.756 45.3753 122.948 38.2747 122.238 39.6966Z" fill="#111111"/>
<path id="Vector_20" d="M128.346 39.2138C128.041 40.284 128.186 40.9918 128.186 44.5198C128.186 45.5086 128.259 45.9662 128.989 45.9662C129.44 45.6661 129.311 45.4211 129.311 42.7515C129.311 37.5619 128.154 39.2138 128.346 39.2138Z" fill="#111111"/>
<path id="Vector_21" d="M135.741 45.966C136.025 45.5417 135.667 37.1128 134.616 39.2137C134.704 39.2137 134.337 47.3748 135.741 45.966Z" fill="#111111"/>
<path id="Vector_22" d="M140.887 39.3745C140.71 41.137 140.656 42.9097 140.726 44.6796C140.726 45.1626 140.726 45.9659 141.048 46.2879C141.208 46.4489 141.485 46.4419 141.53 46.2879C141.67 45.7096 141.724 45.1136 141.69 44.5195C141.758 42.7446 141.65 40.9673 141.369 39.2135C141.369 39.0534 140.887 39.0534 140.887 39.3745Z" fill="#111111"/>
<path id="Vector_23" d="M147.799 39.5357C147.799 39.6232 147.289 45.3107 148.282 46.127C149.451 47.0852 148.885 41.7748 148.778 41.1177C148.322 38.3072 147.812 39.1857 147.799 39.5357Z" fill="#111111"/>
<path id="Vector_24" d="M88.4757 6.09606C87.8868 7.86356 88.3637 7.83119 87.9936 9.31169C87.9936 10.2742 87.8326 11.5622 88.3147 12.3663C88.4757 12.6874 88.7977 12.5264 88.7977 12.3663C88.9998 11.7591 88.9578 11.4913 88.9578 7.70344C88.9578 7.22131 88.7977 6.74094 88.7977 6.09606C88.9578 5.93506 88.6367 5.77406 88.4757 6.09606Z" fill="#111111"/>
<path id="Vector_25" d="M94.585 5.61364C94.2507 7.3609 94.1428 9.14394 94.2639 10.9188C94.2639 11.4009 94.2639 12.205 94.746 12.366H95.0672C95.5493 12.044 95.3892 11.4035 95.3892 10.9188C95.5071 9.14389 95.3989 7.36123 95.0672 5.61364C94.9062 5.45264 94.585 5.29164 94.585 5.61364Z" fill="#111111"/>
<path id="Vector_26" d="M107.125 5.77375C106.949 7.53656 106.895 9.30951 106.965 11.0798C106.965 11.5619 106.965 12.366 107.286 12.6871C107.447 12.8481 107.757 12.8621 107.804 12.7055C107.933 12.1192 107.975 11.5173 107.929 10.9188C107.997 9.14412 107.889 7.36716 107.608 5.61363C107.608 5.45263 107.125 5.45263 107.125 5.77375Z" fill="#111111"/>
<path id="Vector_27" d="M114.038 5.93439C114.038 6.02189 113.476 14.0526 115 12.5258C115.539 11.719 114.795 6.84614 114.518 5.77339C114.444 5.47939 114.038 5.61326 114.038 5.93439Z" fill="#111111"/>
<path id="Vector_28" d="M114.842 73.136C114.716 74.018 114.789 79.4238 115.486 79.8884C115.514 79.9257 115.55 79.956 115.592 79.9769C115.634 79.9977 115.68 80.0086 115.727 80.0086C115.773 80.0086 115.82 79.9977 115.861 79.9769C115.903 79.956 115.94 79.9257 115.968 79.8884C116.478 79.1228 115.642 73.6855 115.486 73.136C115.486 72.814 115 72.814 114.842 73.136Z" fill="#111111"/>
<path id="Vector_29" d="M121.112 73.457C120.935 75.2195 120.882 76.9922 120.952 78.7621C120.952 79.2451 120.952 80.0484 121.273 80.3704C121.434 80.5305 121.755 80.5305 121.755 80.3704C122.077 79.8882 121.916 79.2451 121.916 78.602C121.983 76.8271 121.876 75.0498 121.595 73.296C121.595 72.9749 121.112 73.1359 121.112 73.457Z" fill="#111111"/>
<path id="Vector_30" d="M129.151 78.2802C129.104 76.6004 128.889 74.9295 128.508 73.2927C128.406 72.9637 128.108 73.1037 128.026 73.4537C127.898 74.0341 127.844 74.6282 127.865 75.2221C127.865 76.9327 127.756 77.904 127.865 78.5471C127.869 78.8268 127.928 79.1029 128.04 79.3597C128.151 79.6164 128.311 79.8487 128.512 80.0434C128.54 80.0809 128.577 80.1113 128.618 80.1322C128.66 80.1532 128.706 80.1641 128.753 80.1641C128.8 80.1641 128.846 80.1532 128.888 80.1322C128.93 80.1113 128.966 80.0809 128.994 80.0434C129.312 79.5665 129.151 78.9234 129.151 78.2802Z" fill="#111111"/>
<path id="Vector_31" d="M109.054 75.387C109.054 76.1911 108.893 76.9944 108.893 77.7985V79.5669C108.893 79.8889 109.215 80.049 109.536 80.049C110.691 80.049 109.804 77.1956 109.536 75.548C109.455 75.0458 109.054 75.226 109.054 75.387Z" fill="#111111"/>
<path id="Vector_32" d="M79.4745 4.80924C78.7885 4.6598 78.085 4.60563 77.3842 4.64824C74.0058 4.72874 70.4717 4.32711 67.095 4.80924C65.9818 5.01731 64.9663 5.58141 64.2014 6.41661C63.5428 7.2685 63.1855 8.31484 63.1855 9.39161C63.1855 10.4684 63.5428 11.5147 64.2014 12.3666C66.1894 14.933 70.5452 13.974 75.1337 13.974C76.4187 13.8935 77.7074 13.8935 78.9924 13.974C79.0918 13.9636 79.1838 13.9168 79.2507 13.8425C79.3176 13.7683 79.3547 13.6719 79.3547 13.5719C79.3547 13.472 79.3176 13.3756 79.2507 13.3013C79.1838 13.2271 79.0918 13.1802 78.9924 13.1699C78.029 13.095 77.0613 13.095 76.0979 13.1699C74.9744 13.3449 73.6864 13.3309 72.5612 13.4919C69.167 13.4919 67.3917 13.6625 65.9698 12.8487C65.1114 12.3021 64.4979 11.4443 64.2581 10.4552C64.0183 9.46619 64.1708 8.42271 64.6835 7.54361C65.646 5.93536 67.5772 5.61424 69.3464 5.61424C72.079 5.45324 74.8125 5.77436 77.5452 5.61424C78.2458 5.64077 78.9472 5.58675 79.6355 5.45324C79.6338 5.13124 79.6338 4.97024 79.4745 4.80924Z" fill="#111111"/>
<path id="Vector_33" d="M101.246 5.73533C101.209 5.96091 101.186 6.18854 101.177 6.41695C101.177 7.89045 101.126 8.13458 101.338 8.34633C101.634 8.64208 101.981 7.90882 101.981 7.7032C102.038 7.0505 102.003 6.39306 101.876 5.7502C101.819 5.55683 101.289 5.49558 101.246 5.73533Z" fill="#111111"/>
<path id="Vector_34" d="M46.1941 51.9151C46.3561 52.1523 46.5712 52.3484 46.8223 52.4878C47.0734 52.6272 47.3535 52.7062 47.6405 52.7184C48.4446 52.7184 48.603 53.2005 48.1226 53.5225C47.7586 53.7052 47.338 53.7404 46.9487 53.6206C46.5594 53.5007 46.2314 53.2352 46.0331 52.8794C45.4784 52.0122 45.551 51.272 46.1941 51.9151Z" fill="#111111"/>
<path id="Vector_35" d="M43.6489 40.7788C43.6381 41.0349 43.5508 41.2819 43.3984 41.4879C43.2459 41.6939 43.0353 41.8496 42.7936 41.9349C42.077 42.2989 42.1516 42.7206 42.8136 42.7548C43.2161 42.8023 43.621 42.6885 43.9399 42.4384C44.2588 42.1884 44.4658 41.8222 44.5156 41.42C44.713 40.3077 43.9486 40.0158 43.6489 40.7788Z" fill="#111111"/>
<path id="Vector_36" d="M44.1672 44.6703C44.4425 45.3252 44.9976 45.7165 45.407 45.5444C45.8164 45.3723 45.9251 44.7019 45.6498 44.0471C45.3745 43.3922 44.8195 43.0008 44.4101 43.1729C44.0007 43.345 43.892 44.0154 44.1672 44.6703Z" fill="#111111"/>
</g>
</svg>
