<svg width="171" height="141" viewBox="0 0 171 141" fill="none" xmlns="http://www.w3.org/2000/svg">
<g id="Group">
<path id="Vector" fill-rule="evenodd" clip-rule="evenodd" d="M141.385 2.6374C118.606 2.99615 24.7549 3.19127 1.28038 2.8929C-0.113495 2.8754 -0.21937 0.499773 1.2235 0.499773C25.4216 0.529523 109.073 0.0683972 141.339 0.762272C142.892 0.793772 142.47 2.6199 141.385 2.6374Z" fill="#111111"/>
<g id="Group 5">
<path id="Vector_2" fill-rule="evenodd" clip-rule="evenodd" d="M40.1376 51.0404C40.0642 53.0799 38.8676 55.0032 35.6169 54.9068C32.9027 54.8271 31.9261 52.1698 32.004 50.4192C32.1187 47.8349 33.242 46.5162 35.4977 46.1575C38.9593 45.6061 40.2339 48.4827 40.1376 51.0404Z" fill="#50C85A"/>
<path id="Vector_3" fill-rule="evenodd" clip-rule="evenodd" d="M64.2802 51.0404C64.2068 53.0799 63.0102 55.0032 59.7595 54.9068C57.0453 54.8271 56.0687 52.1698 56.1466 50.4192C56.2612 47.8349 57.3845 46.5162 59.6403 46.1575C63.1018 45.6061 64.3764 48.4827 64.2802 51.0404Z" fill="#50C85A"/>
<path id="Vector_4" fill-rule="evenodd" clip-rule="evenodd" d="M88.4237 51.0404C88.3504 53.0799 87.1537 55.0032 83.903 54.9068C81.1888 54.8271 80.2122 52.1698 80.2902 50.4192C80.4048 47.8349 81.5281 46.5162 83.7838 46.1575C87.2454 45.6061 88.52 48.4827 88.4237 51.0404Z" fill="#50C85A"/>
</g>
<path id="Vector_5" fill-rule="evenodd" clip-rule="evenodd" d="M113.432 70.8633C111.861 71.5418 110.191 71.965 108.486 72.1172C108.649 74.121 108.628 76.1356 108.421 78.1354C108.399 78.2433 108.339 78.3398 108.252 78.4078C108.165 78.4758 108.057 78.5109 107.947 78.5069C107.837 78.503 107.731 78.4601 107.65 78.3861C107.568 78.312 107.515 78.2114 107.501 78.1022C107.337 76.7345 107.719 75.2532 107.444 72.1845C105.397 72.2397 104.438 71.6053 102.64 71.3612C98.1685 70.7506 93.8708 69.2255 90.0146 66.8812C89.9 66.7934 89.8246 66.664 89.8048 66.521C89.7849 66.378 89.8223 66.2329 89.9087 66.1173C93.8652 61.2856 96.9077 55.7731 98.8871 49.8502C99.1207 49.1808 99.8951 48.2813 99.8986 49.4337C99.9082 52.3877 99.5634 55.3399 99.5634 58.2983C99.5634 63.6673 99.706 69.4108 104.937 70.76C108.145 71.5852 111.13 70.5387 113.115 70.0084C113.587 69.878 113.937 70.6192 113.432 70.8633Z" fill="#111111"/>
<path id="Vector_6" fill-rule="evenodd" clip-rule="evenodd" d="M105.86 59.3749C105.402 60.2631 106.964 60.1581 107.901 60.2027C108.02 60.2126 108.131 60.264 108.215 60.3479C108.299 60.4318 108.35 60.5428 108.36 60.6611C108.37 60.7794 108.338 60.8974 108.269 60.9941C108.2 61.0909 108.1 61.1602 107.985 61.1897C107.365 61.2731 106.735 61.2374 106.129 61.0847C105.045 60.8598 104.219 60.4608 104.808 59.2472C105.19 58.428 105.623 57.6339 106.105 56.8698C106.164 56.7773 106.255 56.7094 106.361 56.6789C106.466 56.6484 106.579 56.6574 106.679 56.7041C106.778 56.7508 106.857 56.8321 106.901 56.9328C106.945 57.0335 106.95 57.1467 106.917 57.2513C106.619 57.9849 106.266 58.6948 105.86 59.3749Z" fill="#111111"/>
<path id="Vector_7" fill-rule="evenodd" clip-rule="evenodd" d="M111.797 55.9549C111.808 56.5166 111.85 57.368 111.022 57.3899C110.355 57.4082 110.168 56.8185 110.171 56.0301C110.175 54.61 111.763 54.2145 111.797 55.9549Z" fill="#111111"/>
<path id="Vector_8" fill-rule="evenodd" clip-rule="evenodd" d="M103.991 55.9186C103.977 56.4558 103.749 56.9625 103.129 56.9371C102.611 56.9161 102.424 56.2161 102.439 55.755C102.461 55.0742 102.675 54.7268 103.106 54.6323C103.766 54.4871 104.01 55.2448 103.991 55.9186Z" fill="#111111"/>
<path id="Vector_9" fill-rule="evenodd" clip-rule="evenodd" d="M103.392 51.9109C103.045 51.8709 102.694 51.9285 102.379 52.0772C102.063 52.2259 101.795 52.4599 101.605 52.7526C101.126 53.4614 100.613 52.8795 100.795 52.4595C101.029 51.9489 101.42 51.5266 101.911 51.2548C102.403 50.983 102.968 50.8759 103.525 50.9493C103.649 50.9704 103.761 51.0392 103.835 51.141C103.91 51.2427 103.942 51.3696 103.925 51.4945C103.907 51.6195 103.842 51.7329 103.743 51.8106C103.643 51.8883 103.517 51.9243 103.392 51.9109Z" fill="#111111"/>
<path id="Vector_10" fill-rule="evenodd" clip-rule="evenodd" d="M110.52 51.7907C110.41 51.79 110.305 51.7505 110.222 51.6791C110.139 51.6078 110.085 51.5093 110.068 51.4014C110.051 51.2934 110.073 51.1829 110.13 51.0898C110.187 50.9966 110.276 50.9269 110.38 50.8929C111.048 50.7498 111.745 50.853 112.342 51.1837C112.94 51.5144 113.398 52.0501 113.631 52.6919C113.776 53.1933 113.106 53.6046 112.852 53.0419C112.651 52.6092 112.315 52.2533 111.895 52.0277C111.474 51.8021 110.992 51.7189 110.52 51.7907Z" fill="#111111"/>
<path id="Vector_11" fill-rule="evenodd" clip-rule="evenodd" d="M105.385 66.3742C105.558 65.4635 106.053 64.6453 106.778 64.0682C107.504 63.4912 108.412 63.1936 109.339 63.2296C110.304 63.3094 111.203 63.7526 111.855 64.4697C112.506 65.1867 112.861 66.1242 112.848 67.0928C112.843 67.5431 112.496 67.7806 111.953 67.5264C109.682 66.4633 108.208 66.5591 105.932 67.0514C105.563 67.1314 105.27 66.8521 105.385 66.3742Z" fill="#111111"/>
<path id="Vector_12" fill-rule="evenodd" clip-rule="evenodd" d="M42.7015 80.9336C42.9098 81.3282 42.327 81.7517 42.0015 81.4586C40.1177 79.7532 36.6684 77.3461 35.6954 75.0711C34.3829 72.0086 35.0995 68.1734 32.5025 65.6954C32.4089 65.6154 32.3497 65.5023 32.3372 65.3797C32.3247 65.2572 32.3598 65.1345 32.4353 65.0372C32.5109 64.9398 32.6209 64.8753 32.7428 64.8569C32.8646 64.8386 32.9888 64.8678 33.0897 64.9386C35.9597 66.9572 35.4154 70.9096 36.7445 73.7761C38.092 76.6784 41.2245 78.1414 42.7015 80.9336Z" fill="#111111"/>
<path id="Vector_13" fill-rule="evenodd" clip-rule="evenodd" d="M23.5068 76.4634C20.8295 75.9324 18.3254 74.7468 16.218 73.0124C15.5416 72.4166 16.3519 71.9362 16.8454 72.2696C18.9413 73.7504 21.34 74.7471 23.8681 75.1877C26.3357 75.5527 28.8478 75.4882 31.2934 74.9969C31.8963 74.9164 31.8831 75.7984 31.4684 76.0469C29.5819 77.1801 25.6243 76.9298 23.5068 76.4634Z" fill="#111111"/>
<path id="Vector_14" fill-rule="evenodd" clip-rule="evenodd" d="M12.3818 75.0997C12.0073 74.6893 12.6373 74.1441 13.0485 74.4416C15.8567 76.5963 19.0809 78.1455 22.5178 78.9917C25.2023 79.6042 24.4577 80.8607 22.0479 80.3637C18.3557 79.6601 14.9759 77.8196 12.3818 75.0997Z" fill="#111111"/>
<path id="Vector_15" fill-rule="evenodd" clip-rule="evenodd" d="M22.8115 84.6882C19.6221 84.5036 15.2051 83.0336 12.8111 80.9353C12.7269 80.8586 12.673 80.7542 12.6589 80.6412C12.6448 80.5282 12.6716 80.4138 12.7345 80.3188C12.7973 80.2237 12.892 80.1543 13.0015 80.1229C13.111 80.0916 13.2282 80.1004 13.3318 80.1478C16.9709 81.9311 18.9116 82.8367 22.9786 83.3416C25.3394 83.6356 25.2703 84.8308 22.8115 84.6882Z" fill="#111111"/>
<path id="Vector_16" fill-rule="evenodd" clip-rule="evenodd" d="M36.9073 88.7712C37.5487 89.2087 36.8198 90.2858 36.1662 89.899C32.7169 87.8682 28.789 89.1115 25.0423 89.1054C21.389 89.1673 17.8101 88.0697 14.8197 85.9703C14.3883 85.6474 14.8634 85.0016 15.3193 85.2108C18.7432 86.9399 22.5463 87.7823 26.3802 87.6608C29.9213 87.4464 33.759 86.6274 36.9073 88.7712Z" fill="#111111"/>
<path id="Vector_17" fill-rule="evenodd" clip-rule="evenodd" d="M169.653 140.508C134.631 140.934 34.9149 140.056 13.6157 139.808C12.2437 139.792 11.1552 138.243 13.5763 138.233C40.9638 138.092 128.867 138.125 169.602 138.501C171.206 138.511 171.21 140.489 169.653 140.508Z" fill="#50C85A"/>
<path id="Vector_18" fill-rule="evenodd" clip-rule="evenodd" d="M102.168 77.1992C94.4679 78.4242 79.7189 86.6571 71.6873 97.2787C79.2998 96.1263 101.752 95.9295 108.205 96.6863C105.777 93.7301 103.089 90.9978 100.172 88.5226C101.292 87.239 102.346 86.2406 103.267 85.3621C101.423 84.2246 98.3923 82.4098 97.0544 81.7851C98.5699 80.058 100.287 78.5185 102.168 77.1992Z" fill="#50C85A"/>
<path id="Vector_19" fill-rule="evenodd" clip-rule="evenodd" d="M119.003 85.7568C119.99 86.7408 120.833 87.8604 121.504 89.0818C118.805 90.6288 113.57 93.5259 110.41 96.8833C113.427 97.2788 115.397 98.7427 116.447 103.183C116.899 105.088 117.522 108.145 118.14 111.575C123.856 110.326 129.667 109.558 135.512 109.279C134.486 106.652 133.115 104.175 131.435 101.911C131.075 101.434 131.743 100.829 132.141 101.292C134.171 103.621 135.741 106.313 136.769 109.226C139.387 109.071 142.013 109.109 144.626 109.337C145.221 109.405 145.228 110.294 144.612 110.28C135.788 109.992 126.964 110.823 118.35 112.754C119.229 117.77 120.057 123.374 120.317 127.298C133.879 127.166 155.882 133.868 159.292 125.784C166.929 107.679 143.734 79.1042 127.231 76.6025C128.624 78.5307 129.599 80.7283 130.095 83.0548C128.287 83.6822 121.375 85.328 119.003 85.7568Z" fill="#50C85A"/>
<path id="Vector_20" fill-rule="evenodd" clip-rule="evenodd" d="M108.851 90.8936C106.077 83.9715 106.153 80.2869 105.362 76.8936C105.343 76.7766 105.281 76.671 105.187 76.5986C105.093 76.5263 104.975 76.4928 104.857 76.505C104.74 76.5173 104.631 76.5744 104.554 76.6644C104.477 76.7545 104.437 76.8707 104.444 76.989C104.416 81.0849 106.503 87.9073 108.198 91.8299C108.251 91.9249 108.326 92.0058 108.417 92.0663C108.508 92.1267 108.612 92.1648 108.72 92.1776C108.829 92.1904 108.938 92.1775 109.041 92.1399C109.143 92.1022 109.235 92.041 109.31 91.9611C114.799 84.339 117.541 81.5854 123.835 76.6968C123.933 76.6275 124 76.5229 124.022 76.405C124.045 76.2872 124.021 76.1652 123.955 76.0648C123.889 75.9643 123.788 75.8931 123.671 75.8663C123.554 75.8394 123.431 75.8589 123.328 75.9206C117.487 79.8188 112.55 84.9247 108.851 90.8936Z" fill="#50C85A"/>
<path id="Vector_21" fill-rule="evenodd" clip-rule="evenodd" d="M64.2255 98.0696C58.8268 94.7779 49.6751 86.6798 45.9231 81.5566C42.1526 85.4027 38.7982 89.6357 35.9158 94.1855C42.746 104.259 53.5628 115.125 60.3414 118.282C59.5539 114.924 59.3535 105.641 59.5539 102.678C59.7543 99.7155 61.9873 98.5308 64.2255 98.0696Z" fill="#50C85A"/>
<path id="Vector_22" fill-rule="evenodd" clip-rule="evenodd" d="M33.29 97.9158C34.9647 97.8458 34.1037 96.6716 33.3897 96.6576C23.8522 96.4703 13.6305 96.2375 6.43973 96.3495C6.99535 54.7984 6.66285 28.5808 6.89035 5.16843C6.89648 4.54805 5.96635 4.64343 5.93835 5.23405C5.0301 24.2679 5.58835 75.5254 4.88835 96.2078C4.86385 96.9165 4.91285 97.3689 6.44585 97.4372C10.7395 97.6297 14.9237 97.6376 19.2419 97.7119C23.21 97.7811 29.4444 98.0768 33.29 97.9158Z" fill="#50C85A"/>
<path id="Vector_23" fill-rule="evenodd" clip-rule="evenodd" d="M137.78 56.6749C138.201 48.1436 138.07 39.4995 138.108 30.9499C138.131 25.8959 138.361 12.3264 138.304 5.66677C138.294 4.51352 137.105 5.17064 137.093 5.75427C136.863 17.0619 136.267 45.2964 136.699 56.6871C136.736 57.6461 137.737 57.6321 137.78 56.6749Z" fill="#50C85A"/>
<path id="Vector_24" fill-rule="evenodd" clip-rule="evenodd" d="M137.678 78.8418C137.9 76.9553 137.703 71.9293 137.71 68.9884C137.71 67.9332 136.72 68.3208 136.684 68.7627C136.474 72.1194 136.465 75.4857 136.658 78.8435C136.697 79.3449 137.62 79.337 137.678 78.8418Z" fill="#50C85A"/>
<path id="Vector_25" fill-rule="evenodd" clip-rule="evenodd" d="M140.816 130.593C135.593 129.98 124.762 129.309 117.729 129.193C117.729 125.155 113.867 102.068 111.409 100.137C109.055 98.287 64.402 97.9422 62.5584 101.449C60.1346 106.066 64.1404 134.666 66.3524 135.421C69.9512 136.646 138.355 136.442 141.34 136.209C142.9 136.09 143.122 130.861 140.816 130.593ZM76.3422 102.891C73.7487 103.162 71.2672 103.521 68.6807 103.9C66.4416 104.228 66.2832 104.697 66.04 106.846C65.7317 109.398 65.5838 111.966 65.5972 114.537C65.5972 115.083 64.8019 115.227 64.7292 114.651C64.3944 111.702 64.4168 108.723 64.7957 105.779C65.046 103.847 65.7582 102.979 67.6832 102.586C70.5295 102.011 73.435 101.783 76.3361 101.907C76.4539 101.924 76.5617 101.983 76.6398 102.073C76.718 102.163 76.7613 102.277 76.7621 102.396C76.7628 102.515 76.7209 102.631 76.6439 102.722C76.5668 102.812 76.4598 102.873 76.3422 102.891ZM87.775 122.429C85.9244 122.779 83.9197 121.778 83.1979 118.955C82.5705 116.505 83.7229 114.656 85.7581 114.136C90.6319 112.89 92.4125 121.543 87.775 122.429Z" fill="#111111"/>
<path id="Vector_26" fill-rule="evenodd" clip-rule="evenodd" d="M138.367 64.0127C130.046 55.7676 135.006 44.208 129.684 38.6141C128.678 37.5292 127.319 36.8369 125.85 36.6607C124.38 36.4844 122.896 36.8356 121.662 37.6516C117.562 30.985 109.201 29.3715 102.082 31.5896C94.323 34.0072 91.5432 43.4791 97.7714 46.5276C101.035 48.1254 112.493 48.261 116.076 47.5671C116.362 50.5333 117.472 53.3605 119.279 55.73C119.464 55.9531 119.723 56.262 120.031 55.9925C120.364 55.6923 120.756 55.4647 121.182 55.3238C121.607 55.183 122.058 55.1321 122.504 55.1744C122.95 55.2167 123.383 55.3512 123.775 55.5694C124.166 55.7877 124.508 56.0849 124.779 56.4422C125.028 56.8102 125.202 57.2237 125.291 57.659C125.379 58.0943 125.381 58.5429 125.296 58.9789C125.211 59.4149 125.041 59.8299 124.795 60.1998C124.549 60.5698 124.232 60.8876 123.863 61.1349C122.793 61.8427 122.03 61.7395 120.831 61.6791C120.456 61.6607 120.386 61.9749 120.36 62.2619C119.99 66.4304 119.58 71.1869 120.216 75.3326C120.232 75.4477 120.293 75.5518 120.385 75.6229C120.477 75.694 120.593 75.7263 120.709 75.7131C120.824 75.6999 120.93 75.6421 121.003 75.5521C121.077 75.4621 121.112 75.3469 121.102 75.2311C121.111 74.1076 121.069 72.9841 121.032 71.8597C126.891 72.5151 134.308 69.0886 138.385 65.1712C139.03 64.5579 138.568 64.2122 138.367 64.0127ZM106.85 35.4912C105.421 35.4656 104.008 35.7865 102.731 36.4266C101.313 37.1074 98.9045 38.7996 99.0664 40.5741C99.1145 41.1061 98.3498 41.4316 98.1512 40.883C97.193 38.2387 99.86 36.1729 101.638 35.2025C103.222 34.3382 104.996 33.8826 106.801 33.8769C109.109 33.8795 108.156 35.5464 106.85 35.4912Z" fill="#111111"/>
</g>
</svg>
