<svg xmlns="http://www.w3.org/2000/svg" width="16" height="16" viewBox="0 0 16 16" fill="none">
  <path d="M14.9436 14.2693L8.4436 1.76931C8.40138 1.68812 8.3377 1.62008 8.25948 1.5726C8.18126 1.52511 8.09151 1.5 8 1.5C7.9085 1.5 7.81875 1.52511 7.74053 1.5726C7.66231 1.62008 7.59862 1.68812 7.5564 1.76931L1.0564 14.2693C1.01677 14.3455 0.997436 14.4307 1.00027 14.5165C1.00311 14.6024 1.02802 14.686 1.0726 14.7595C1.11718 14.8329 1.17992 14.8936 1.25478 14.9357C1.32965 14.9779 1.4141 15 1.5 15H14.5C14.5859 15 14.6704 14.9779 14.7452 14.9357C14.8201 14.8936 14.8828 14.8329 14.9274 14.7595C14.972 14.686 14.9969 14.6024 14.9997 14.5165C15.0026 14.4307 14.9832 14.3455 14.9436 14.2693ZM7.4375 5.50001H8.5625V10.5H7.4375V5.50001ZM8 13.5C7.85167 13.5 7.70666 13.456 7.58333 13.3736C7.45999 13.2912 7.36386 13.1741 7.30709 13.037C7.25033 12.9 7.23548 12.7492 7.26441 12.6037C7.29335 12.4582 7.36478 12.3246 7.46967 12.2197C7.57456 12.1148 7.7082 12.0434 7.85369 12.0144C7.99917 11.9855 8.14997 12.0003 8.28702 12.0571C8.42406 12.1139 8.54119 12.21 8.62361 12.3333C8.70602 12.4567 8.75 12.6017 8.75 12.75C8.75 12.9489 8.67099 13.1397 8.53033 13.2803C8.38968 13.421 8.19892 13.5 8 13.5Z" fill="#FF8B00"/>
</svg>