<svg width="16" height="16" viewBox="0 0 16 16" fill="none" xmlns="http://www.w3.org/2000/svg">
<g clip-path="url(#clip0_103_664)">
<path fill-rule="evenodd" clip-rule="evenodd" d="M0.955529 7.6465C0.760267 7.84177 0.760266 8.15835 0.955529 8.35361L7.64626 15.0443C7.84152 15.2396 8.1581 15.2396 8.35337 15.0443L15.0441 8.35361C15.2394 8.15835 15.2394 7.84177 15.0441 7.6465L8.35337 0.955773C8.1581 0.760511 7.84152 0.760511 7.64626 0.955773L0.955529 7.6465ZM8.56233 4.00004H7.43733V9.50004H8.56233V4.00004ZM7.58315 12.3736C7.70649 12.4561 7.85149 12.5 7.99983 12.5C8.19874 12.5 8.38951 12.421 8.53016 12.2804C8.67081 12.1397 8.74983 11.949 8.74983 11.75C8.74983 11.6017 8.70584 11.4567 8.62343 11.3334C8.54102 11.21 8.42389 11.1139 8.28684 11.0571C8.1498 11.0004 7.999 10.9855 7.85351 11.0144C7.70803 11.0434 7.57439 11.1148 7.4695 11.2197C7.36461 11.3246 7.29318 11.4582 7.26424 11.6037C7.2353 11.7492 7.25015 11.9 7.30692 12.0371C7.36369 12.1741 7.45982 12.2912 7.58315 12.3736Z" fill="#DE350B"/>
</g>
<defs>
<clipPath id="clip0_103_664">
<rect width="16" height="16" fill="white"/>
</clipPath>
</defs>
</svg>
