<svg width="14" height="14" viewBox="0 0 14 14" fill="none" xmlns="http://www.w3.org/2000/svg">
<path d="M13.9436 13.2693L7.4436 0.769307C7.40138 0.688124 7.3377 0.620084 7.25948 0.572597C7.18126 0.525111 7.09151 0.5 7 0.5C6.9085 0.5 6.81875 0.525111 6.74053 0.572597C6.66231 0.620084 6.59862 0.688124 6.5564 0.769307L0.0564039 13.2693C0.0167682 13.3455 -0.00256351 13.4307 0.000272631 13.5165C0.00310877 13.6024 0.0280171 13.686 0.0725961 13.7595C0.117175 13.8329 0.179921 13.8936 0.254784 13.9357C0.329646 13.9779 0.414101 14 0.500004 14H13.5C13.5859 14 13.6704 13.9779 13.7452 13.9357C13.8201 13.8936 13.8828 13.8329 13.9274 13.7595C13.972 13.686 13.9969 13.6024 13.9997 13.5165C14.0026 13.4307 13.9832 13.3455 13.9436 13.2693ZM6.4375 4.50001H7.5625V9.50001H6.4375V4.50001ZM7 12.5C6.85167 12.5 6.70666 12.456 6.58333 12.3736C6.45999 12.2912 6.36386 12.1741 6.30709 12.037C6.25033 11.9 6.23548 11.7492 6.26441 11.6037C6.29335 11.4582 6.36478 11.3246 6.46967 11.2197C6.57456 11.1148 6.7082 11.0434 6.85369 11.0144C6.99917 10.9855 7.14997 11.0003 7.28702 11.0571C7.42406 11.1139 7.54119 11.21 7.62361 11.3333C7.70602 11.4567 7.75 11.6017 7.75 11.75C7.75 11.9489 7.67099 12.1397 7.53033 12.2803C7.38968 12.421 7.19892 12.5 7 12.5Z" fill="#FF991F"/>
</svg>
